<svg xmlns="http://www.w3.org/2000/svg" width="409.811" height="138.82" viewBox="0 0 409.811 138.82">
  <g id="Captcha-Logo-color" transform="translate(-420.221 -16.759)">
    <g id="c" transform="translate(-461.779 -695.831)">
      <path id="Pfad_27" data-name="Pfad 27" d="M475.364,71.389,494.17,51.87a27.73,27.73,0,1,0,1.569,39.151Z" transform="translate(475.566 709.771)" fill="#61b180"/>
      <path id="Pfad_28" data-name="Pfad 28" d="M476.836,69.86,494.17,51.87A27.71,27.71,0,0,0,455.6,91.644Z" transform="translate(475.566 709.771)" fill="#e0ad41"/>
      <path id="Pfad_29" data-name="Pfad 29" d="M456.021,49.755A27.691,27.691,0,0,0,455.6,89l19.822-20.333Z" transform="translate(475.566 712.414)" fill="#ca3d5c"/>
      <g id="Gruppe_4843" data-name="Gruppe 4843" transform="translate(882 712.59)">
        <path id="Pfad_26" data-name="Pfad 26" d="M540.426,134.836c-15.158,14.893-31.115,20.743-50.53,20.743-38.03,0-69.675-22.869-69.675-69.409S451.866,16.759,489.9,16.759c18.618,0,32.98,5.319,47.338,19.415L516.759,57.714A39.827,39.827,0,0,0,490.43,47.342c-21.805,0-37.762,15.956-37.762,38.828,0,25,17.021,38.294,37.229,38.294,10.374,0,20.746-2.924,28.724-10.9Z" transform="translate(-420.221 -16.759)" fill="#68c1eb"/>
      </g>
    </g>
    <path id="Pfad_2883" data-name="Pfad 2883" d="M18.067.89a18.037,18.037,0,0,1-6.5-1.157,16.1,16.1,0,0,1-5.206-3.16A14.484,14.484,0,0,1,2.937-8.188a14.318,14.318,0,0,1-1.246-5.963,13.975,13.975,0,0,1,1.513-6.5,15.59,15.59,0,0,1,4.183-5.073,19.306,19.306,0,0,1,6.364-3.293,27.143,27.143,0,0,1,8.144-1.157,21.936,21.936,0,0,1,9.434,1.78v-1.424a6.023,6.023,0,0,0-1.913-4.895q-1.914-1.6-6.186-1.6a20.556,20.556,0,0,0-7.387,1.291,36.357,36.357,0,0,0-7.12,3.782l-4.895-10.5A38.094,38.094,0,0,1,24.92-47.7q11.214,0,17.266,4.984t6.052,14.952v9.078a4.838,4.838,0,0,0,.89,3.337,4.9,4.9,0,0,0,3.2,1.113V0q-2.314.445-4.361.667A34.158,34.158,0,0,1,44.322.89q-4.539,0-6.9-1.647a7.676,7.676,0,0,1-3.07-4.85L34-7.3a21.539,21.539,0,0,1-7.209,6.1A18.906,18.906,0,0,1,18.067.89Zm5.073-12.1a10.635,10.635,0,0,0,3.115-.49,11.393,11.393,0,0,0,2.848-1.29,7.292,7.292,0,0,0,1.6-1.557,2.9,2.9,0,0,0,.623-1.736v-3.471a24.1,24.1,0,0,0-3.293-.89,16.5,16.5,0,0,0-3.2-.356,8.451,8.451,0,0,0-5.162,1.513,4.584,4.584,0,0,0-2.047,3.827,3.92,3.92,0,0,0,1.558,3.2A6.141,6.141,0,0,0,23.14-11.214ZM89.534.89a18.4,18.4,0,0,1-8.811-2,13.879,13.879,0,0,1-5.785-5.829v25.9H58.028V-46.814H72.713v7.031a17.561,17.561,0,0,1,6.141-5.874A18.144,18.144,0,0,1,87.843-47.7a20.576,20.576,0,0,1,8.633,1.825,20.33,20.33,0,0,1,6.853,5.029,23.823,23.823,0,0,1,4.495,7.654,27.485,27.485,0,0,1,1.646,9.612,30.366,30.366,0,0,1-1.513,9.745,24.785,24.785,0,0,1-4.183,7.787A19.03,19.03,0,0,1,97.455-.934,17.463,17.463,0,0,1,89.534.89ZM83.66-13.35a7.381,7.381,0,0,0,3.426-.8,8.006,8.006,0,0,0,2.67-2.225,11.686,11.686,0,0,0,1.78-3.293,11.82,11.82,0,0,0,.668-4,9.911,9.911,0,0,0-2.537-7.12,8.837,8.837,0,0,0-6.719-2.67q-4.717,0-8.01,4.806v8.1A12.99,12.99,0,0,0,78.587-15.4,7.722,7.722,0,0,0,83.66-13.35ZM147.74-2.581A52.013,52.013,0,0,1,140.13-.045,32.425,32.425,0,0,1,132.165.979a20.327,20.327,0,0,1-5.429-.712,11.783,11.783,0,0,1-4.494-2.314,11.041,11.041,0,0,1-3.026-4.183,16.217,16.217,0,0,1-1.113-6.408V-34.087h-5.785V-46.814H118.1V-61.5h16.91v14.685h9.167v12.727h-9.167V-18.6a4.384,4.384,0,0,0,.979,3.248,3.707,3.707,0,0,0,2.67.934,11.9,11.9,0,0,0,2.848-.4,19.577,19.577,0,0,0,3.2-1.113Zm1.78-20.826a25.486,25.486,0,0,1,1.691-9.211,22.581,22.581,0,0,1,4.939-7.743A23.891,23.891,0,0,1,164.2-45.7a28.494,28.494,0,0,1,11.036-2q8.544,0,14.285,3.56a22.907,22.907,0,0,1,8.589,9.167l-16.465,4.984a7.513,7.513,0,0,0-6.5-3.471,7.661,7.661,0,0,0-5.874,2.625q-2.4,2.626-2.4,7.431t2.4,7.432a7.661,7.661,0,0,0,5.874,2.625,7.513,7.513,0,0,0,6.5-3.471l16.465,4.984a22.907,22.907,0,0,1-8.589,9.167Q183.785.89,175.241.89a28.494,28.494,0,0,1-11.036-2,23.891,23.891,0,0,1-8.054-5.34,22.581,22.581,0,0,1-4.939-7.743A25.486,25.486,0,0,1,149.52-23.407ZM250.446,0h-16.91V-26.344q0-3.471-1.558-5.028a5.256,5.256,0,0,0-3.872-1.558,4.907,4.907,0,0,0-1.913.49,11.051,11.051,0,0,0-2.225,1.335,11.62,11.62,0,0,0-2.092,2.091,11.57,11.57,0,0,0-1.6,2.759V0h-16.91V-64.97h16.91v25.1a16.381,16.381,0,0,1,6.5-5.829,19.821,19.821,0,0,1,8.989-2,15.653,15.653,0,0,1,7.832,1.691,12,12,0,0,1,4.45,4.228A14.958,14.958,0,0,1,250-36.312a36.935,36.935,0,0,1,.445,5.518Zm21.983.89a18.037,18.037,0,0,1-6.5-1.157,16.1,16.1,0,0,1-5.207-3.16A14.484,14.484,0,0,1,257.3-8.188a14.318,14.318,0,0,1-1.246-5.963,13.975,13.975,0,0,1,1.513-6.5,15.59,15.59,0,0,1,4.183-5.073,19.306,19.306,0,0,1,6.363-3.293,27.144,27.144,0,0,1,8.144-1.157,21.936,21.936,0,0,1,9.434,1.78v-1.424a6.023,6.023,0,0,0-1.914-4.895q-1.913-1.6-6.185-1.6a20.556,20.556,0,0,0-7.387,1.291,36.357,36.357,0,0,0-7.12,3.782l-4.895-10.5A38.094,38.094,0,0,1,279.282-47.7q11.214,0,17.266,4.984T302.6-27.768v9.078a4.839,4.839,0,0,0,.89,3.337,4.9,4.9,0,0,0,3.2,1.113V0q-2.314.445-4.361.667a34.158,34.158,0,0,1-3.649.223q-4.539,0-6.9-1.647a7.676,7.676,0,0,1-3.07-4.85L288.36-7.3a21.539,21.539,0,0,1-7.209,6.1A18.906,18.906,0,0,1,272.429.89Zm5.073-12.1a10.635,10.635,0,0,0,3.115-.49,11.393,11.393,0,0,0,2.848-1.29,7.291,7.291,0,0,0,1.6-1.557,2.9,2.9,0,0,0,.623-1.736v-3.471a24.1,24.1,0,0,0-3.293-.89,16.5,16.5,0,0,0-3.2-.356,8.451,8.451,0,0,0-5.162,1.513,4.584,4.584,0,0,0-2.047,3.827,3.92,3.92,0,0,0,1.557,3.2A6.141,6.141,0,0,0,277.5-11.214Z" transform="translate(523.338 113.758)" fill="#1a1a1a"/>
  </g>
</svg>
