<svg xmlns="http://www.w3.org/2000/svg" width="19.5" height="19.5" viewBox="0 0 19.5 19.5">
  <path id="extension_FILL0_wght400_GRAD0_opsz24" d="M8.8,21H5a2,2,0,0,1-2-2V15.2a3.15,3.15,0,0,0,2.1-.762,2.537,2.537,0,0,0,0-3.876A3.15,3.15,0,0,0,3,9.8V6A2.006,2.006,0,0,1,5,4H9a2.476,2.476,0,0,1,2.5-2.5A2.476,2.476,0,0,1,14,4h4a2.006,2.006,0,0,1,2,2v4a2.476,2.476,0,0,1,2.5,2.5A2.476,2.476,0,0,1,20,15v4a2,2,0,0,1-2,2H14.2a3.065,3.065,0,0,0-.787-2.125,2.528,2.528,0,0,0-3.825,0A3.063,3.063,0,0,0,8.8,21ZM5,19H7.125A4,4,0,0,1,9.05,16.675,5.45,5.45,0,0,1,11.5,16a5.45,5.45,0,0,1,2.45.675A4,4,0,0,1,15.875,19H18V13h2a.5.5,0,0,0,0-1H18V6H12V4a.5.5,0,0,0-1,0V6H5V8.2A4.513,4.513,0,0,1,7.175,9.875,4.462,4.462,0,0,1,8,12.5a4.424,4.424,0,0,1-.825,2.6A4.665,4.665,0,0,1,5,16.8ZM12.75,11.25Z" transform="translate(-3 -1.5)" fill="#333"/>
</svg>
