<svg xmlns="http://www.w3.org/2000/svg" width="23" height="12" viewBox="0 0 23 12">
  <path id="key_FILL0_wght400_GRAD0_opsz24" d="M7,14a2,2,0,0,1-1.412-3.413,1.992,1.992,0,0,1,2.824,0A2,2,0,0,1,7,14Zm0,4a5.786,5.786,0,0,1-4.25-1.75A5.786,5.786,0,0,1,1,12,5.786,5.786,0,0,1,2.75,7.75,5.786,5.786,0,0,1,7,6a5.753,5.753,0,0,1,3.038.825A6.213,6.213,0,0,1,12.2,9H21l3,3-4.5,4.5-2-1.5-2,1.5L13.375,15H12.2a6.213,6.213,0,0,1-2.162,2.175A5.753,5.753,0,0,1,7,18Zm0-2a3.83,3.83,0,0,0,2.463-.85A4.033,4.033,0,0,0,10.875,13H14l1.45,1.025L17.5,12.5l1.775,1.375L21.15,12l-1-1H10.875A4.033,4.033,0,0,0,9.463,8.85,3.83,3.83,0,0,0,7,8,3.852,3.852,0,0,0,4.175,9.175a3.984,3.984,0,0,0,0,5.65A3.852,3.852,0,0,0,7,16Z" transform="translate(-1 -6)" fill="#333"/>
</svg>
