<svg xmlns="http://www.w3.org/2000/svg" width="20" height="20" viewBox="0 0 20 20">
  <path id="public_FILL0_wght400_GRAD0_opsz24" d="M12,22a9.732,9.732,0,0,1-3.9-.788A9.978,9.978,0,0,1,2.788,15.9,9.732,9.732,0,0,1,2,12a9.732,9.732,0,0,1,.788-3.9A9.984,9.984,0,0,1,8.1,2.787,9.743,9.743,0,0,1,12,2a9.743,9.743,0,0,1,3.9.787A9.984,9.984,0,0,1,21.212,8.1,9.732,9.732,0,0,1,22,12a9.732,9.732,0,0,1-.788,3.9A9.978,9.978,0,0,1,15.9,21.212,9.732,9.732,0,0,1,12,22Zm-1-2.05V18a2.006,2.006,0,0,1-2-2V15L4.2,10.2q-.075.45-.138.9A6.587,6.587,0,0,0,4,12a7.806,7.806,0,0,0,1.988,5.3A7.694,7.694,0,0,0,11,19.95Zm6.9-2.55a8.377,8.377,0,0,0,.9-1.188,7.57,7.57,0,0,0,.663-1.325,8.322,8.322,0,0,0,.4-1.412A7.926,7.926,0,0,0,20,12a7.846,7.846,0,0,0-1.362-4.475A7.7,7.7,0,0,0,15,4.6V5a2.006,2.006,0,0,1-2,2H11V9a.982.982,0,0,1-1,1H8v2h6a.981.981,0,0,1,1,1v3h1a1.932,1.932,0,0,1,1.175.387A1.979,1.979,0,0,1,17.9,17.4Z" transform="translate(-2 -2)" fill="#333"/>
</svg>
