<svg xmlns="http://www.w3.org/2000/svg" width="20" height="20" viewBox="0 0 20 20">
  <path id="error_FILL1_wght400_GRAD0_opsz24" d="M12,17a.984.984,0,1,0-.712-.288A.968.968,0,0,0,12,17Zm-1-4h2V7H11Zm1,9a9.732,9.732,0,0,1-3.9-.788A9.978,9.978,0,0,1,2.788,15.9,9.732,9.732,0,0,1,2,12a9.732,9.732,0,0,1,.788-3.9A9.984,9.984,0,0,1,8.1,2.787,9.743,9.743,0,0,1,12,2a9.743,9.743,0,0,1,3.9.787A9.984,9.984,0,0,1,21.212,8.1,9.732,9.732,0,0,1,22,12a9.732,9.732,0,0,1-.788,3.9A9.978,9.978,0,0,1,15.9,21.212,9.732,9.732,0,0,1,12,22Z" transform="translate(-2 -2)" fill="#fda429"/>
</svg>
