<svg xmlns="http://www.w3.org/2000/svg" xmlns:xlink="http://www.w3.org/1999/xlink" width="99" height="98" viewBox="0 0 99 98">
  <defs>
    <filter id="Ellipse_393" x="0" y="0" width="99" height="98" filterUnits="userSpaceOnUse">
      <feOffset input="SourceAlpha"/>
      <feGaussianBlur stdDeviation="3" result="blur"/>
      <feFlood flood-opacity="0.161"/>
      <feComposite operator="in" in2="blur"/>
      <feComposite in="SourceGraphic"/>
    </filter>
    <clipPath id="clip-path">
      <rect id="Rechteck_4824" data-name="Rechteck 4824" width="46.624" height="15.036" fill="#fff"/>
    </clipPath>
  </defs>
  <g id="_4" data-name="4" transform="translate(9.435 9)">
    <g transform="matrix(1, 0, 0, 1, -9.43, -9)" filter="url(#Ellipse_393)">
      <ellipse id="Ellipse_393-2" data-name="Ellipse 393" cx="40.5" cy="40" rx="40.5" ry="40" transform="translate(9 9)" fill="#fff"/>
    </g>
    <g id="wpforms" transform="translate(16.752 14.943)">
      <path id="Pfad_3509" data-name="Pfad 3509" d="M28.592,50.016a6.882,6.882,0,0,0,5.79-1.633l2.672.151L35.6,52.8c-1.618,2.573-3.948,3.1-6.356,2.954l-.652-5.716Z" transform="translate(-22.125 -30.598)" fill="#7eaaba"/>
      <path id="Pfad_3510" data-name="Pfad 3510" d="M30.683,51.98l.445,3.9a5.289,5.289,0,0,0,4.78-2.479l1.059-3.058-1.173-.059a7.478,7.478,0,0,1-5.1,1.692Z" transform="translate(-23.222 -31.597)" fill="#d3e8ef"/>
      <path id="Pfad_3511" data-name="Pfad 3511" d="M30.683,51.98,30.95,54.3c2.747-.325,4.885-1.454,6-3.948l-1.173-.059A7.478,7.478,0,0,1,30.683,51.98Z" transform="translate(-23.222 -31.597)" fill="#fff"/>
      <path id="Pfad_3512" data-name="Pfad 3512" d="M24.962,44.763a4.54,4.54,0,1,1-3.21,1.33A4.54,4.54,0,0,1,24.962,44.763Z" transform="translate(-17.842 -28.7)" fill="#7eaaba"/>
      <path id="Pfad_3513" data-name="Pfad 3513" d="M25.962,46.624a3.632,3.632,0,1,0,2.568,1.064A3.632,3.632,0,0,0,25.962,46.624Z" transform="translate(-18.843 -29.676)" fill="#d3e8ef"/>
      <path id="Pfad_3514" data-name="Pfad 3514" d="M26.676,46.624a3.611,3.611,0,0,0-2.984,1.559A3.653,3.653,0,0,0,27.324,51.6a3.611,3.611,0,0,0,2.984-1.559,3.652,3.652,0,0,0-3.632-3.414Z" transform="translate(-19.557 -29.676)" fill="#fff"/>
      <path id="Pfad_3515" data-name="Pfad 3515" d="M25.235,46.137a3.384,3.384,0,1,1-1.3.257A3.385,3.385,0,0,1,25.235,46.137Z" transform="translate(-18.591 -29.42)" fill="#7eaaba"/>
      <path id="Pfad_3516" data-name="Pfad 3516" d="M24.721,44.232a3.409,3.409,0,1,1-2.4,1A3.4,3.4,0,0,1,24.721,44.232Z" transform="translate(-18.314 -28.422)" fill="#7f3e13"/>
      <path id="Pfad_3517" data-name="Pfad 3517" d="M26.175,46.98a2.7,2.7,0,1,0,1.035.206A2.7,2.7,0,0,0,26.175,46.98Z" transform="translate(-19.442 -29.862)" fill="#b85a1b"/>
      <path id="Pfad_3518" data-name="Pfad 3518" d="M21.8,36.84a1.485,1.485,0,0,1,2.969,0A1.522,1.522,0,0,1,27.379,38.4c.044.179.074.342.1.521,1.41.074,1.87,2.287-.061,2.969a4.237,4.237,0,0,1-.757,1.559c-1.665,1.426-2.2.253-3.089-.713-.861.03-3.235-.593-2.573,1.634-1.513-.952-2.494-2.912-1.752-5.791-1.023-2.315,1.678-3.178,2.539-1.751Z" transform="translate(-17.097 -23.776)" fill="#7f3e13"/>
      <path id="Pfad_3519" data-name="Pfad 3519" d="M21.2,42.456a4.424,4.424,0,0,0,.623,4.1,3.291,3.291,0,0,0,5.3-.49,5.45,5.45,0,0,0,.3-3.623,15.484,15.484,0,0,0-6.236.03Z" transform="translate(-18.136 -27.324)" fill="#b85a1b"/>
      <path id="Pfad_3520" data-name="Pfad 3520" d="M21.2,42.442a4.424,4.424,0,0,0,.623,4.1,3.371,3.371,0,0,0,2.494,1.114V42.111A18.479,18.479,0,0,0,21.2,42.442Z" transform="translate(-18.136 -27.309)" fill="#e1762f"/>
      <path id="Pfad_3521" data-name="Pfad 3521" d="M24.185,44.83a2.456,2.456,0,0,0,.356,2.287,1.828,1.828,0,0,0,2.954-.281,2.946,2.946,0,0,0,.163-2.019A8.551,8.551,0,0,0,24.185,44.83Z" transform="translate(-19.751 -28.638)" fill="#7f3e13"/>
      <path id="Pfad_3522" data-name="Pfad 3522" d="M30.818,37.822a.791.791,0,1,1-.555.232A.787.787,0,0,1,30.818,37.822Zm-2.851,1a.787.787,0,0,0,0-1.574Z" transform="translate(-21.798 -24.758)" fill="#b85a1b"/>
      <path id="Pfad_3523" data-name="Pfad 3523" d="M24.14,38.834V37.275a.787.787,0,1,0,0,1.572Zm-2.686-.908a.8.8,0,1,1-.554.233.787.787,0,0,1,.554-.233Z" transform="translate(-17.971 -24.774)" fill="#e1762f"/>
      <path id="Pfad_3524" data-name="Pfad 3524" d="M34.934,44.452a.791.791,0,1,1-.555.232A.787.787,0,0,1,34.934,44.452Z" transform="translate(-25.038 -28.537)" fill="#b85a1b"/>
      <path id="Pfad_3525" data-name="Pfad 3525" d="M88.864,55.706a5.438,5.438,0,0,0-3.355-4.973l.416-1.633,3.385-.908a6.337,6.337,0,0,1,4.676,5.153l-5.107,2.374Z" transform="translate(-51.964 -30.498)" fill="#7eaaba"/>
      <path id="Pfad_3526" data-name="Pfad 3526" d="M90.674,55.4l3.37-1.574a4.769,4.769,0,0,0-3.652-3.756l-2.642.713-.12.445a6.093,6.093,0,0,1,3.027,4.157Z" transform="translate(-53.076 -31.481)" fill="#fff"/>
      <path id="Pfad_3527" data-name="Pfad 3527" d="M85.453,58.449a4.408,4.408,0,1,1,.847,1.5A4.409,4.409,0,0,1,85.453,58.449Z" transform="translate(-51.818 -32.84)" fill="#7eaaba"/>
      <path id="Pfad_3528" data-name="Pfad 3528" d="M87.02,59.024a3.632,3.632,0,1,0-.178-1.412A3.642,3.642,0,0,0,87.02,59.024Z" transform="translate(-52.658 -33.667)" fill="#d3e8ef"/>
      <path id="Pfad_3529" data-name="Pfad 3529" d="M95.208,57.387a3.407,3.407,0,0,0-.151-.652,3.632,3.632,0,0,0-4.6-2.317,3.5,3.5,0,0,0-1.485.935,3.509,3.509,0,0,0,.151.654,3.632,3.632,0,0,0,4.6,2.323A3.481,3.481,0,0,0,95.208,57.387Z" transform="translate(-53.778 -33.663)" fill="#fff"/>
      <path id="Pfad_3530" data-name="Pfad 3530" d="M83.718,61.175a4.15,4.15,0,1,1,.8,1.414A4.16,4.16,0,0,1,83.718,61.175Z" transform="translate(-50.914 -34.437)" fill="#7f3e13"/>
      <path id="Pfad_3531" data-name="Pfad 3531" d="M85.547,61.908A3.269,3.269,0,1,1,87.178,63.8,3.267,3.267,0,0,1,85.547,61.908Z" transform="translate(-51.897 -35.438)" fill="#b85a1b"/>
      <path id="Pfad_3532" data-name="Pfad 3532" d="M85.444,60.351a3.277,3.277,0,0,1,6.5.3,5.727,5.727,0,0,1-6.507-.312Z" transform="translate(-51.927 -35.425)" fill="#e1762f"/>
      <path id="Pfad_3533" data-name="Pfad 3533" d="M50.407,11a3.089,3.089,0,0,1,3,3.178,3,3,0,1,1-6,0A3.091,3.091,0,0,1,50.407,11Z" transform="translate(-31.989 -11)" fill="#7f3e13"/>
      <path id="Pfad_3534" data-name="Pfad 3534" d="M51.377,12.842a2.218,2.218,0,0,0-2.119,2.3,2.126,2.126,0,1,0,4.237,0A2.219,2.219,0,0,0,51.377,12.842Z" transform="translate(-32.96 -11.965)" fill="#b85a1b"/>
      <path id="Pfad_3535" data-name="Pfad 3535" d="M52.338,14.683a1.437,1.437,0,1,0,1.247,1.425A1.346,1.346,0,0,0,52.338,14.683Z" transform="translate(-33.92 -12.931)" fill="#63300f"/>
      <path id="Pfad_3536" data-name="Pfad 3536" d="M77.212,11a3.089,3.089,0,0,1,3,3.178,3,3,0,1,1-6,0A3.09,3.09,0,0,1,77.212,11Z" transform="translate(-46.043 -11)" fill="#7f3e13"/>
      <path id="Pfad_3537" data-name="Pfad 3537" d="M78.181,12.842a2.218,2.218,0,0,0-2.119,2.3,2.126,2.126,0,1,0,4.237,0A2.218,2.218,0,0,0,78.181,12.842Z" transform="translate(-47.011 -11.965)" fill="#b85a1b"/>
      <path id="Pfad_3538" data-name="Pfad 3538" d="M79.142,14.683a1.437,1.437,0,1,0,1.248,1.425A1.346,1.346,0,0,0,79.142,14.683Z" transform="translate(-47.972 -12.931)" fill="#4f2800"/>
      <path id="Pfad_3539" data-name="Pfad 3539" d="M63.53,14.12a.956.956,0,1,1-.666.282A.951.951,0,0,1,63.53,14.12Zm2.421,0a.956.956,0,1,1-.667.283.951.951,0,0,1,.667-.283Z" transform="translate(-39.946 -12.636)" fill="#7f3e13"/>
      <path id="Pfad_3540" data-name="Pfad 3540" d="M64.382,19.059v5.909l.061.015a2.188,2.188,0,0,1,1.41,2.064v4.245L53.308,35.435,40.763,31.4V27.047a2.188,2.188,0,0,1,1.41-2.064l.059-.015V19.045c0-4.086,22.15-4.086,22.15,0Z" transform="translate(-28.506 -13.611)" fill="#7f3e13"/>
      <path id="Pfad_3541" data-name="Pfad 3541" d="M44.338,20.42v6.368L43.819,27a1.447,1.447,0,0,0-.935,1.38v4.484L54.42,36.573l11.536-3.8V28.383A1.462,1.462,0,0,0,65.019,27l-.519-.209V20.42c0-3.027-20.146-3.027-20.146,0Z" transform="translate(-29.618 -14.748)" fill="#b85a1b"/>
      <path id="Pfad_3542" data-name="Pfad 3542" d="M44.338,20.434V26.8l-.519.209a1.447,1.447,0,0,0-.935,1.38v4.484L54.42,36.586V34.151c-3.994.014-7.987-2.6-6.934-7.78H54.42v-8.2c-5.033,0-10.081.757-10.081,2.27Z" transform="translate(-29.618 -14.762)" fill="#e1762f"/>
      <path id="Pfad_3543" data-name="Pfad 3543" d="M51.2,32.562H66.191C68.32,43.816,48.909,43.727,51.2,32.562Z" transform="translate(-33.877 -22.304)" fill="#e5895b"/>
      <path id="Pfad_3544" data-name="Pfad 3544" d="M52.9,34.4a5.508,5.508,0,0,0,1.454,4.721,8.088,8.088,0,0,0,10.452.059A5.573,5.573,0,0,0,66.4,34.4Z" transform="translate(-34.842 -23.269)" fill="#e5895b"/>
      <path id="Pfad_3545" data-name="Pfad 3545" d="M72.4,43.258c1.009,1.306,3.948.772,3.072-1.99Z" transform="translate(-45.094 -26.868)" fill="#fad395"/>
      <path id="Pfad_3546" data-name="Pfad 3546" d="M70.468,42.044a2.421,2.421,0,0,0,3.965-2.554Z" transform="translate(-44.078 -25.935)" fill="#4f2800"/>
      <path id="Pfad_3547" data-name="Pfad 3547" d="M72.2,41.419a.454.454,0,1,1-.283.549.442.442,0,0,1,.283-.549Zm2.4-1.665a.436.436,0,0,1,.521.327.445.445,0,0,1-.283.549.434.434,0,0,1-.519-.327.445.445,0,0,1,.281-.548Z" transform="translate(-44.826 -26.069)" fill="#fff"/>
      <path id="Pfad_3548" data-name="Pfad 3548" d="M75.632,43.879a2.282,2.282,0,0,0,1.618-1.931A1.788,1.788,0,0,0,75.632,43.879Z" transform="translate(-46.777 -27.221)" fill="#ad6151"/>
      <path id="Pfad_3549" data-name="Pfad 3549" d="M54.472,32.562H66.364C68.047,40.594,52.668,40.52,54.472,32.562Z" transform="translate(-35.615 -22.304)" fill="#fad395"/>
      <path id="Pfad_3550" data-name="Pfad 3550" d="M66.506,36.578a2.8,2.8,0,0,1,.561-1.335,2.578,2.578,0,0,0,2.27-3.252,8.54,8.54,0,0,0-2.819-.489l-.58,1.84.58,3.252Z" transform="translate(-41.704 -21.748)" fill="#4f2800"/>
      <path id="Pfad_3551" data-name="Pfad 3551" d="M63.928,36.577a2.814,2.814,0,0,0-.564-1.336,2.577,2.577,0,0,1-2.27-3.252,8.54,8.54,0,0,1,2.821-.489v5.077Z" transform="translate(-39.127 -21.747)" fill="#63300f"/>
      <path id="Pfad_3552" data-name="Pfad 3552" d="M62.643,32.817a8.1,8.1,0,0,1,4.216,0C67.452,34.287,62,34.272,62.643,32.817Z" transform="translate(-39.949 -22.291)" fill="#ad6151"/>
      <path id="Pfad_3553" data-name="Pfad 3553" d="M60.606,24.544a1.59,1.59,0,1,1-1.123.466A1.589,1.589,0,0,1,60.606,24.544Z" transform="translate(-38.075 -18.1)" fill="#fff"/>
      <path id="Pfad_3554" data-name="Pfad 3554" d="M61.3,25.7a1.191,1.191,0,1,1-.839.349A1.188,1.188,0,0,1,61.3,25.7Z" transform="translate(-38.647 -18.705)" fill="#1b1d23"/>
      <path id="Pfad_3555" data-name="Pfad 3555" d="M70.217,24.544a1.59,1.59,0,1,0,1.124.465A1.589,1.589,0,0,0,70.217,24.544Z" transform="translate(-43.115 -18.1)" fill="#fff"/>
      <path id="Pfad_3556" data-name="Pfad 3556" d="M70.409,25.7a1.191,1.191,0,1,0,.839.349A1.188,1.188,0,0,0,70.409,25.7Z" transform="translate(-43.425 -18.705)" fill="#1b1d23"/>
      <path id="Pfad_3557" data-name="Pfad 3557" d="M61.131,22.127a4.438,4.438,0,0,0-3.3.584C57.493,20.762,60.774,20.182,61.131,22.127Z" transform="translate(-37.443 -16.204)" fill="#63300f"/>
      <path id="Pfad_3558" data-name="Pfad 3558" d="M68.845,20.068a4.431,4.431,0,0,1,3.3.58C72.483,18.7,69.2,18.123,68.845,20.068Z" transform="translate(-43.228 -15.124)" fill="#4f2800"/>
      <path id="Pfad_3559" data-name="Pfad 3559" d="M65.821,48.2V60.413A1.491,1.491,0,0,1,64.336,61.9H42.216a1.489,1.489,0,0,1-1.485-1.486V48.3l12.545,3Z" transform="translate(-28.489 -30.499)" fill="#7eaaba"/>
      <path id="Pfad_3560" data-name="Pfad 3560" d="M65.946,50.88,54.41,53.731,42.865,50.974V61.559a.735.735,0,0,0,.743.741H65.2a.735.735,0,0,0,.743-.741Z" transform="translate(-29.608 -31.907)" fill="#d3e8ef"/>
      <path id="Pfad_3561" data-name="Pfad 3561" d="M54.42,53.834,42.884,51.077V61.662a.735.735,0,0,0,.742.741H54.42Z" transform="translate(-29.618 -32.01)" fill="#fff"/>
      <path id="Pfad_3562" data-name="Pfad 3562" d="M67.131,63.164h9.694v1.307H67.131Zm0,2.688h9.694v1.306H67.131Z" transform="translate(-42.329 -38.346)" fill="#036aab"/>
      <path id="Pfad_3563" data-name="Pfad 3563" d="M46.752,63.164h9.7v1.307h-9.7Zm9.7,3.993V65.851h-9.7v1.306Z" transform="translate(-31.646 -38.346)" fill="#0399ed"/>
      <path id="Pfad_3564" data-name="Pfad 3564" d="M55.022,61.4H56.24V67.32H55.022Z" transform="translate(-35.981 -37.419)" fill="#fff"/>
      <path id="Pfad_3565" data-name="Pfad 3565" d="M47.846,50.1c3.058.728,6.117,1.469,9.16,2.2l-3.267,3.087A15.7,15.7,0,0,1,47.846,50.1Z" transform="translate(-32.219 -31.498)" fill="#7eaaba"/>
      <path id="Pfad_3566" data-name="Pfad 3566" d="M53.308,53.564a17.177,17.177,0,0,0,3.161,2.389l1.382-1.306C56.336,54.292,54.821,53.92,53.308,53.564Z" transform="translate(-35.082 -33.314)" fill="#fff"/>
      <path id="Pfad_3567" data-name="Pfad 3567" d="M76.291,50.1c-3.058.728-6.117,1.469-9.16,2.2L70.4,55.385A15.708,15.708,0,0,0,76.291,50.1Z" transform="translate(-42.329 -31.498)" fill="#7eaaba"/>
      <path id="Pfad_3568" data-name="Pfad 3568" d="M75.917,53.564a17.186,17.186,0,0,1-3.163,2.389l-1.38-1.3C72.889,54.292,74.4,53.92,75.917,53.564Z" transform="translate(-44.554 -33.314)" fill="#fff"/>
      <g id="Gruppe_11292" data-name="Gruppe 11292" transform="translate(0 35.206)" clip-path="url(#clip-path)">
        <path id="Pfad_3569" data-name="Pfad 3569" d="M54.47,85.342a.3.3,0,0,1,.073.157,1.507,1.507,0,0,1,.009.173l-.033.157a1.736,1.736,0,0,1-.066.206,1.065,1.065,0,0,1-.181.313.471.471,0,0,1-.4.049.3.3,0,0,0-.149-.049,2.046,2.046,0,0,0-.288-.049,2.812,2.812,0,0,0-.305-.017,1.669,1.669,0,0,0-.47.066.923.923,0,0,0-.4.255,1.425,1.425,0,0,0-.307.515,2.7,2.7,0,0,0-.132.816q-.017.249-.017.47v.5h.709c.186,0,.39,0,.61-.008h.01c.215-.008.372-.014.469-.025a5.391,5.391,0,0,1-.049.545,1.559,1.559,0,0,1-.082.337.469.469,0,0,1-.132.19.916.916,0,0,1-.2.114l.016-.017a.892.892,0,0,1-.1.041l-.1.041a3.578,3.578,0,0,1-.519.033h-.646v1.487q0,.8.008,1.615t.016,1.591q.009.776.009,1.418a1.133,1.133,0,0,1-.025.206.229.229,0,0,1-.173.174,4.276,4.276,0,0,1-.572.065c-.2.011-.353.017-.458.017a2.971,2.971,0,0,1-.527-.049.991.991,0,0,1-.017-.2V95.27c0-.153,0-.315.009-.486.008-.154.008-.309.008-.467V92.27c0-.363,0-.712-.008-1.047s-.009-.686-.009-1.064a1.889,1.889,0,0,1-1.006-.263c.022-.166.043-.3.066-.4a.656.656,0,0,1,.09-.229.458.458,0,0,1,.141-.132.773.773,0,0,1,.214-.082.834.834,0,0,1,.2-.055c.071-.01.173-.033.3-.065h0c0-.22,0-.429.017-.627.006-.065.011-.129.015-.191.01-.128.019-.251.034-.369v.016a3.28,3.28,0,0,1,.371-1.373,2.578,2.578,0,0,1,.734-.841,2.7,2.7,0,0,1,.931-.429A3.979,3.979,0,0,1,53.112,85a2.891,2.891,0,0,1,.874.108,1.172,1.172,0,0,1,.458.239Zm5.072,7.39a6.025,6.025,0,0,1-.248,1.821,3.754,3.754,0,0,1-.686,1.311,2.856,2.856,0,0,1-1.049.792,3.241,3.241,0,0,1-1.311.263,3.094,3.094,0,0,1-2.44-.964,4.638,4.638,0,0,1-.857-3.124,6.127,6.127,0,0,1,.247-1.838A3.6,3.6,0,0,1,53.89,89.7a2.754,2.754,0,0,1,1.055-.758,3.553,3.553,0,0,1,1.352-.248,2.917,2.917,0,0,1,2.44,1.023A4.8,4.8,0,0,1,59.543,92.732Zm-4.766.032a7.037,7.037,0,0,0,.114,1.385,3.109,3.109,0,0,0,.313.907,1.162,1.162,0,0,0,1.072.643,1.124,1.124,0,0,0,.561-.148,1.261,1.261,0,0,0,.458-.494,3.076,3.076,0,0,0,.313-.9,6.905,6.905,0,0,0,.114-1.373,4.43,4.43,0,0,0-.4-2.193,1.221,1.221,0,0,0-1.088-.643,1.085,1.085,0,0,0-.561.157,1.365,1.365,0,0,0-.458.486,3.017,3.017,0,0,0-.321.874A5.958,5.958,0,0,0,54.777,92.763Zm7.535-2.44a1.837,1.837,0,0,1,.61-.1l.083,0a.384.384,0,0,1,.132.033c.051.008.108.013.169.019l.054.005c.082.008.167.008.255.008h.149a.377.377,0,0,0,.114-.032,1.344,1.344,0,0,0,.237-.559,2.822,2.822,0,0,0,.057-.486q-.082-.375-.824-.458a1.619,1.619,0,0,0-.486.008,2.33,2.33,0,0,0-.47.124c-.154.056-.317.121-.486.2a2.95,2.95,0,0,0-.48.285.552.552,0,0,0-.206-.255.779.779,0,0,0-.391-.074h-.1a.384.384,0,0,0-.132.033,3.432,3.432,0,0,0-.445.214,1.439,1.439,0,0,0-.264.2,5.533,5.533,0,0,1,.149.545,3.256,3.256,0,0,1,.065.686l-.016,2.751q0,.953-.008,1.781t-.025,1.487c.264,0,.485,0,.66-.008s.323-.015.437-.025a1.128,1.128,0,0,0,.28-.058.716.716,0,0,0,.206-.125.76.76,0,0,0,.14-.321,2.2,2.2,0,0,0,.025-.354V90.654A1.351,1.351,0,0,1,62.312,90.324Zm7.4,6.4a1.153,1.153,0,0,1-.229.017H68.28q.032-.627.033-1.41V91.66a2.778,2.778,0,0,0-.206-1.27.766.766,0,0,0-.734-.358,1.4,1.4,0,0,0-.692.173,2.189,2.189,0,0,0-.542.416V95.9a1.621,1.621,0,0,1-.032.343.635.635,0,0,1-.149.28.693.693,0,0,1-.214.125,1.54,1.54,0,0,1-.281.065,2.879,2.879,0,0,1-.42.025h-.651q.016-.627.016-1.419V90.686A3.733,3.733,0,0,0,64.35,90a4.485,4.485,0,0,0-.141-.545,1.865,1.865,0,0,1,.709-.412.383.383,0,0,1,.132-.033h.082a.637.637,0,0,1,.38.108.894.894,0,0,1,.229.239,3.5,3.5,0,0,1,.972-.494,3.369,3.369,0,0,1,1.072-.166h.157a.853.853,0,0,1,.173.017,2.359,2.359,0,0,1,.874.229,1.83,1.83,0,0,1,.572.458,2.557,2.557,0,0,1,.527-.313c.2-.087.38-.159.545-.214a3.169,3.169,0,0,1,1.039-.165h.19a.7.7,0,0,1,.157.016H72a2.339,2.339,0,0,1,.956.264,1.551,1.551,0,0,1,.6.586,2.589,2.589,0,0,1,.3.882,7.4,7.4,0,0,1,.082,1.137v3.9c0,.369.01.695.032.981a.825.825,0,0,1-.214.131,1.135,1.135,0,0,1-.3.075c-.121.018-.27.031-.446.041s-.4.016-.675.017a1.512,1.512,0,0,1-.108-.28,1.238,1.238,0,0,1-.041-.329V91.676a2.883,2.883,0,0,0-.2-1.27.753.753,0,0,0-.725-.363,1.365,1.365,0,0,0-.7.19,2.594,2.594,0,0,0-.572.458l.049-.049v5.733C70.044,96.552,69.934,96.667,69.714,96.72ZM77.43,88.7a2.536,2.536,0,0,0-.264-.009,3.092,3.092,0,0,0-1.908.542,1.8,1.8,0,0,0-.726,1.533,2.253,2.253,0,0,0,.759,1.6l.413.322q.23.2.535.437c.2.159.4.3.586.437-.023-.023,0-.011.057.032s.107.078.141.1a1.549,1.549,0,0,1,.486.47,1.012,1.012,0,0,1,.139.519.914.914,0,0,1-.206.618.83.83,0,0,1-.584.272c-.039.008-.074.013-.108.018L76.7,95.6a.862.862,0,0,1-.141.008,2.539,2.539,0,0,1-.6-.075,3.3,3.3,0,0,1-.572-.19v.017a1.09,1.09,0,0,0-.5-.148h-.165a1.693,1.693,0,0,0-.239.458,1.373,1.373,0,0,0-.09.437,1.224,1.224,0,0,0,.766.572,4.191,4.191,0,0,0,1.426.229,4.111,4.111,0,0,0,1.121-.148,2.764,2.764,0,0,0,.923-.445,2.085,2.085,0,0,0,.618-.733,2.241,2.241,0,0,0,.223-1.03,1.974,1.974,0,0,0-.247-.972,3.109,3.109,0,0,0-.775-.885c-.143-.106-.3-.222-.47-.343s-.333-.241-.486-.363c-.112-.074-.219-.15-.323-.224l-.058-.041c-.105-.075-.2-.143-.278-.2l-.035-.026a1.321,1.321,0,0,1-.355-.4.856.856,0,0,1-.09-.38.675.675,0,0,1,.256-.542,1.03,1.03,0,0,1,.687-.215,2.016,2.016,0,0,1,.741.149,1.559,1.559,0,0,0,.272.074c.094.016.184.035.272.057a1.639,1.639,0,0,0,.173.033,1.021,1.021,0,0,1,.157.033,2.006,2.006,0,0,0,.229-.429,1.141,1.141,0,0,0,.1-.412q-.049-.183-.428-.429a2.611,2.611,0,0,0-1.171-.313A1.85,1.85,0,0,0,77.43,88.7Z" transform="translate(-32.85 -84.999)" fill="#5f5e5e" fill-rule="evenodd"/>
        <path id="Pfad_3570" data-name="Pfad 3570" d="M54.4,85.367l.118-.013v0Zm-.073-.157.089-.079-.042-.047-.062.008Zm.082.329.116.025,0-.012v-.012Zm-.033.157.115.029v0Zm-.066.206-.111-.043v0Zm-.181.313.063.1.016-.01.012-.015Zm-.192.069.015.118Zm-.2-.019-.066.1.014.009.016.005Zm-.149-.049-.028.116.011,0h.011Zm-.288-.049-.013.118h0Zm-.305-.017v.119h0Zm-.47.066-.033-.114h0Zm-.4.255.087.081h0Zm-.307.515-.113-.038h0Zm-.132.816.119.008V87.8Zm-.017.973h-.119v.119h.119Zm1.319-.008,0,.119h0Zm.01,0,0-.119h0Zm.469-.025.119,0,.005-.139-.138.016Zm-.049.545L53.3,89.27v0Zm-.082.337.111.042h0Zm-.132.19.072.095,0,0,0,0Zm-.2.114-.087-.081.133.191Zm.016-.017.087.081-.139-.188Zm-.1.041-.039-.112,0,0Zm-.1.041.016.118.017,0,.016-.007Zm-.519.033v-.119h0Zm-.646,0v-.119h-.119v.119Zm.008,3.1h0Zm.016,1.591h0Zm.009,1.418.119,0v0Zm-.025.206.116.026h0Zm-.061.112-.084-.084h0Zm-.112.062.022.117h0Zm-.572.065-.005-.119h0Zm-.458.017v.119h0Zm-.527-.049-.117.022.015.08.08.015Zm-.017-.2h0Zm.009-1.7.119.006Zm.008-.467h0Zm0-.053h0Zm-.008-3.042.119,0Zm-.009-1.064h.119v-.114l-.113-.005Zm-1.006-.263-.118-.015-.009.07.057.042Zm.066-.4.116.027v0Zm.09-.229-.1-.068,0,0Zm.141-.132-.059-.1h0Zm.214-.082.026.116.01,0,.01,0Zm.2-.055-.017-.118h0Zm.3-.065.028.116.091-.022v-.093Zm.017-.627-.119-.01Zm.015-.191.119.009h0Zm.034-.369h.119L49.87,87.6Zm0,.016h-.119l.238.005Zm.371-1.373-.1-.057v0Zm.734-.841-.069-.1h0Zm.931-.429.028.116h0Zm.948-.125v.119h0Zm.874.108-.032.114h0Zm.458.239-.077.091.04.034.052-.007Zm4.85,9.208-.114-.034h0ZM59.4,92.6h-.119v0Zm-.935,3.132.092.076h0Zm-1.049.792.047.109h0Zm-1.311.263v-.119h0Zm-2.44-.964-.089.079ZM52.811,92.7h.119v0Zm.247-1.838-.114-.033h0Zm.692-1.294-.09-.077h0Zm1.055-.758-.044-.111h0Zm1.352-.248,0,.119h0Zm2.44,1.023.093-.074Zm-3.846,4.435L54.868,94h0Zm-.114-1.385.119,0v0Zm.428,2.293.106-.053v0Zm.442.478.061-.1h0Zm.63.165v-.119h0Zm.561-.148.059.1,0,0Zm.458-.494-.1-.056h0Zm.313-.9L57.351,94h0Zm.114-1.373h-.119v0Zm-.4-2.193.1-.062ZM56.1,89.817V89.7h0Zm-.561.157-.062-.1,0,0Zm-.458.486-.1-.058h0Zm-.321.874.116.024h0Zm8.022-1.24,0-.119h0Zm-.61.1-.038-.113h0Zm.693-.1.008-.119h0ZM63,90.13l-.049.108.015.007.016,0Zm.169.019-.011.118h0Zm.054.005.012-.118Zm.4.008v.119h.014Zm.114-.032.05.108.028-.013.018-.025Zm.237-.559-.117-.024v0Zm.057-.486.119,0v-.015l0-.014Zm-.824-.458-.016.118h0Zm-.486.008.018.118h0Zm-.47.124.041.112h0Zm-.486.2-.049-.108h0Zm-.48.285-.111.044.057.143.124-.09Zm-.206-.255.066-.1-.007,0-.008,0Zm-.391-.074v.119H60.7Zm-.1,0v-.119H60.58Zm-.132.033.044.111.005,0Zm-.445.214-.059-.1h0Zm-.264.2-.082-.086-.055.052.024.072Zm.149.545.117-.024v0Zm.065.686h0Zm-.016,2.751h0Zm-.033,3.268-.119,0,0,.122h.122Zm.66-.008,0-.118h0Zm.437-.025L61,96.455h0Zm.28-.058.038.113.005,0Zm.206-.125.078.09.01-.009.008-.01Zm.14-.321.117.021v0Zm.025-.353h0Zm0-5.194-.085-.083-.033.035v.048Zm7.685,6.083,0-.119h0Zm.229-.017.02.118H69.6Zm-1.435.017-.119-.006-.006.125h.125Zm.033-1.41h0Zm-.206-4.937.1-.059h0Zm-.734-.358,0,.119h0Zm-.692.173.057.1h0ZM66,90.49l-.086-.082-.033.034v.047Zm0,5.276h0Zm-.032.343.116.028v0Zm-.149.28.077.09.006,0,0-.005Zm-.214.125.038.113h0Zm-.281.065-.015-.118h0Zm-.42.025,0-.119h0Zm-.651,0-.119,0,0,.122h.122Zm.016-6.049h0Zm-.057-.686.117-.021v0Zm-.141-.545-.091-.076-.042.051.021.063Zm.709-.412.044.111.005,0Zm.132-.033V88.76H64.9Zm.082,0V89h0Zm.38.108.069-.1,0,0Zm.229.239-.1.065.068.1.1-.073Zm.972-.494.037.113h0Zm1.072-.166v.119h0Zm.157,0v.119h0Zm.173.017-.024.117.008,0h.008Zm.874.229.054-.106h0Zm.572.458-.091.076.073.088.091-.07Zm.527-.313-.048-.109h0Zm.545-.214.038.113h0Zm1.039-.165V88.7h0Zm.19,0V88.7h0Zm.157.016v.119l.025-.235Zm-.017,0v-.119l-.007.238Zm.956.264.057-.1h0Zm.6.586.1-.058v0Zm.3.882-.118.017h0Zm.082,1.137h0Zm.032,4.88.077.091.046-.039,0-.06Zm-.214.131.044.111h0Zm-.3.075L73.3,96.43h0Zm-.446.041-.007-.118h0Zm-.675.017-.106.053.033.066H72.2Zm-.108-.28-.115.03h0ZM72.047,96h0Zm-.2-5.722.1-.057h0Zm-.725-.363v.119h0Zm-.7.19.06.1h0Zm-.572.458-.087-.081.171.166Zm.049-.049h.119v-.287l-.2.2Zm0,5.733h-.119v0Zm7.126-7.684v.119h0Zm.264.009-.012.118h.006Zm-2.172.533-.071-.1Zm.032,3.134-.084.084.005.005.006,0Zm.413.322.078-.09,0,0ZM76.1,93l-.073.094h0Zm.586.437-.069.1.153-.181Zm.057.032.071-.1h0Zm.141.1-.064.1h0Zm.486.47.1-.06,0-.005Zm.139.519h-.119v.006Zm-.206.618.088.08,0,0Zm-.584.272,0-.119H76.7l-.01,0Zm-.108.018-.017-.118Zm-.049.007.019.118h0Zm-.141.008V95.6h0Zm-.6-.075.029-.115h0Zm-.572-.19.047-.109-.166-.072v.181Zm0,.017-.06.1.179.106v-.208Zm-.5-.148.006-.119H74.75Zm-.165,0v-.119h-.06l-.036.049Zm-.239.458.111.042v0Zm-.09.437-.119,0V96l.01.025Zm.766.572-.04.112h0Zm1.426.229v-.119h0Zm1.121-.148-.03-.115h0Zm.923-.445.07.1h0Zm.618-.733.106.054v0Zm.223-1.03h-.119v0Zm-.247-.972.1-.058v0Zm-.775-.885.073-.094h0Zm-.47-.343-.069.1Zm-.486-.363.074-.093,0,0,0,0Zm-.323-.224-.069.1h0Zm-.058-.041.069-.1h0Zm-.278-.2.071-.1h0Zm-.035-.026-.071.1h0Zm-.355-.4-.106.053v0l0,0Zm-.09-.38h.119v0Zm.065-.3-.108-.051h0Zm.192-.241-.073-.094h0Zm.687-.215-.007.119h.005Zm.741.149-.045.11h0Zm.272.074-.021.117h0Zm.272.057.029-.115h0Zm.173.033-.016.118h0Zm.157.033-.034.114.082.024.049-.07Zm.229-.429L78.9,89.7l0,.006Zm.1-.412.119.006v-.019l0-.018Zm-1.6-.742-.02.117h.01ZM54.521,85.35a.422.422,0,0,0-.1-.218l-.178.158a.184.184,0,0,1,.044.1Zm.01.191a1.616,1.616,0,0,0-.01-.186l-.236.026a1.388,1.388,0,0,1,.008.159Zm-.036.181.033-.157-.233-.049-.033.157Zm-.072.225a1.858,1.858,0,0,0,.071-.22l-.231-.059a1.618,1.618,0,0,1-.062.192Zm-.2.346a1.185,1.185,0,0,0,.2-.348l-.223-.082a.947.947,0,0,1-.161.278Zm-.269.111a.591.591,0,0,0,.241-.086l-.126-.2a.353.353,0,0,1-.144.051Zm-.255-.024a.591.591,0,0,0,.255.024l-.029-.236a.352.352,0,0,1-.152-.014Zm-.118-.044a.176.176,0,0,1,.089.029l.132-.2a.414.414,0,0,0-.209-.069Zm-.294-.05a1.923,1.923,0,0,1,.271.046l.057-.231a2.165,2.165,0,0,0-.305-.052Zm-.294-.017a2.692,2.692,0,0,1,.293.016l.026-.236a2.928,2.928,0,0,0-.318-.018Zm-.437.062a1.549,1.549,0,0,1,.437-.062v-.238a1.785,1.785,0,0,0-.5.071Zm-.35.222a.8.8,0,0,1,.352-.222l-.071-.227a1.042,1.042,0,0,0-.456.288Zm-.281.472a1.306,1.306,0,0,1,.281-.472l-.174-.162a1.544,1.544,0,0,0-.332.558ZM51.8,87.8a2.585,2.585,0,0,1,.126-.78l-.226-.073a2.824,2.824,0,0,0-.137.851Zm-.017.469q0-.216.017-.462l-.237-.016q-.017.253-.017.478Zm0,.5v-.5h-.238v.5Zm.59-.119h-.709v.238h.709Zm.605-.008c-.217.008-.419.008-.605.008v.238c.186,0,.392,0,.614-.008Zm.01,0h-.01l.009.238H53Zm.459-.024c-.091.011-.242.016-.459.024l.009.238c.212-.008.375-.014.478-.025Zm.082.679a5.507,5.507,0,0,0,.05-.557l-.238-.009a5.282,5.282,0,0,1-.048.533Zm-.088.362a1.674,1.674,0,0,0,.089-.363l-.236-.03a1.441,1.441,0,0,1-.076.312Zm-.165.239a.587.587,0,0,0,.165-.238l-.223-.083a.349.349,0,0,1-.1.142Zm-.23.134a1.033,1.033,0,0,0,.224-.129l-.144-.189a.8.8,0,0,1-.172.1Zm-.117-.208-.016.017.174.162.016-.017Zm.028.235a1.018,1.018,0,0,0,.112-.047l-.1-.214a.765.765,0,0,1-.085.036Zm-.09.037.095-.039-.088-.221-.1.043Zm-.569.044a3.688,3.688,0,0,0,.537-.034l-.032-.236a3.455,3.455,0,0,1-.5.032Zm-.645,0H52.3v-.238h-.646Zm.119,1.368V90.027h-.238v1.487Zm.008,1.614q-.008-.814-.008-1.614h-.238q0,.8.008,1.616Zm.016,1.591q-.008-.777-.016-1.591l-.238,0q.008.815.016,1.591Zm.009,1.419q0-.643-.009-1.419l-.238,0q.009.775.009,1.416Zm-.028.231a1.246,1.246,0,0,0,.028-.227l-.238-.007a1.011,1.011,0,0,1-.023.184Zm-.093.171a.348.348,0,0,0,.093-.17l-.232-.051a.114.114,0,0,1-.029.054Zm-.17.094a.351.351,0,0,0,.17-.094l-.169-.167a.111.111,0,0,1-.054.029Zm-.593.068a4.359,4.359,0,0,0,.588-.067l-.043-.234a4.117,4.117,0,0,1-.556.063Zm-.463.017c.108,0,.26-.006.464-.018l-.013-.237c-.2.011-.35.017-.451.017Zm-.549-.051a3.033,3.033,0,0,0,.549.051v-.238a2.821,2.821,0,0,1-.506-.047Zm-.114-.316a1.106,1.106,0,0,0,.019.222l.234-.044a.869.869,0,0,1-.015-.174Zm0-1.212v1.214h.238V95.139Zm.009-.492c-.009.174-.009.34-.009.492h.238c0-.154,0-.313.009-.48Zm.008-.46c0,.158,0,.311-.008.46l.238.013c.008-.157.008-.316.008-.473Zm0-.053v.053h.238v-.053Zm0-1.995v1.995h.238V92.138ZM49.8,91.094c.008.333.008.681.008,1.044h.238c0-.363,0-.713-.008-1.05ZM49.8,90.028c0,.378,0,.73.009,1.067l.238-.006c-.008-.334-.009-.684-.009-1.061Zm-.956-.167a2,2,0,0,0,1.07.286l.011-.238a1.779,1.779,0,0,1-.941-.241Zm.02-.519c-.024.1-.047.24-.068.407l.236.031c.022-.165.043-.292.064-.384Zm.106-.265a.775.775,0,0,0-.107.27l.234.044a.538.538,0,0,1,.074-.187Zm.18-.17a.576.576,0,0,0-.177.166l.2.136a.338.338,0,0,1,.1-.1Zm.249-.1a.893.893,0,0,0-.247.1l.117.207a.653.653,0,0,1,.181-.07Zm.2-.056a.95.95,0,0,0-.225.063l.092.22a.713.713,0,0,1,.169-.047Zm.294-.063c-.132.032-.229.054-.293.063l.034.235c.077-.011.184-.035.315-.067Zm-.091.116h0Zm.018-.637c-.018.2-.018.419-.018.637h.238c0-.221,0-.425.017-.617Zm.015-.19c0,.063-.01.126-.015.19l.237.021c.006-.066.011-.13.015-.193Zm.034-.375c-.015.121-.025.247-.034.375l.237.018c.01-.128.019-.249.033-.364Zm.237.031v-.016h-.238v.016Zm.146-1.428a3.4,3.4,0,0,0-.384,1.422l.238.011a3.162,3.162,0,0,1,.357-1.323Zm.769-.881a2.7,2.7,0,0,0-.768.88l.209.114a2.458,2.458,0,0,1,.7-.8ZM52,84.877a2.823,2.823,0,0,0-.972.448l.139.193a2.586,2.586,0,0,1,.89-.41Zm.975-.128a4.1,4.1,0,0,0-.977.128l.059.23a3.86,3.86,0,0,1,.92-.121Zm.908.112a3.009,3.009,0,0,0-.91-.112l.007.238a2.77,2.77,0,0,1,.838.1Zm.5.263a1.29,1.29,0,0,0-.5-.263l-.061.23a1.052,1.052,0,0,1,.411.215Zm-.066-.031-.026,0,.031.236.026,0Zm4.953,9.363a6.143,6.143,0,0,0,.253-1.857l-.238,0a5.907,5.907,0,0,1-.243,1.786Zm-.708,1.352a3.879,3.879,0,0,0,.708-1.353l-.228-.067a3.639,3.639,0,0,1-.665,1.269Zm-1.094.825a2.981,2.981,0,0,0,1.093-.824l-.183-.152a2.741,2.741,0,0,1-1.005.758Zm-1.36.273a3.369,3.369,0,0,0,1.359-.273l-.094-.219a3.123,3.123,0,0,1-1.263.254Zm-2.528-1a3.212,3.212,0,0,0,2.529,1v-.238a2.977,2.977,0,0,1-2.351-.924Zm-.887-3.2a4.75,4.75,0,0,0,.887,3.2l.178-.158A4.527,4.527,0,0,1,52.93,92.7Zm.252-1.872a6.246,6.246,0,0,0-.252,1.874l.238,0a6.008,6.008,0,0,1,.242-1.8Zm.715-1.337a3.714,3.714,0,0,0-.715,1.337l.228.067a3.476,3.476,0,0,1,.669-1.251Zm1.1-.792a2.873,2.873,0,0,0-1.1.791l.181.155a2.636,2.636,0,0,1,1.009-.726Zm1.4-.257a3.673,3.673,0,0,0-1.4.257l.087.221a3.435,3.435,0,0,1,1.307-.24Zm2.532,1.068a3.035,3.035,0,0,0-2.533-1.068v.238a2.8,2.8,0,0,1,2.347.977Zm.831,3.091a4.913,4.913,0,0,0-.831-3.091l-.187.147a4.684,4.684,0,0,1,.78,2.944ZM54.868,94a6.917,6.917,0,0,1-.112-1.362l-.238,0a7.148,7.148,0,0,0,.116,1.409Zm.3.873a2.993,2.993,0,0,1-.3-.873l-.234.042a3.227,3.227,0,0,0,.325.942Zm.4.432a1.044,1.044,0,0,1-.4-.429l-.213.106a1.279,1.279,0,0,0,.487.527Zm.565.148a1.04,1.04,0,0,1-.565-.148l-.122.2a1.281,1.281,0,0,0,.694.182Zm.5-.133a1,1,0,0,1-.5.133v.238a1.238,1.238,0,0,0,.62-.165Zm.411-.446a1.141,1.141,0,0,1-.414.448l.125.2a1.375,1.375,0,0,0,.5-.541Zm.3-.866a2.954,2.954,0,0,1-.3.864l.21.112a3.2,3.2,0,0,0,.326-.934Zm.113-1.349A6.78,6.78,0,0,1,57.351,94l.234.043a7.021,7.021,0,0,0,.116-1.4Zm-.378-2.133a4.327,4.327,0,0,1,.378,2.131H57.7a4.533,4.533,0,0,0-.413-2.255Zm-.987-.586a1.1,1.1,0,0,1,.987.586l.2-.125a1.339,1.339,0,0,0-1.189-.7Zm-.5.14a.965.965,0,0,1,.5-.14V89.7a1.2,1.2,0,0,0-.622.174Zm-.415.442a1.247,1.247,0,0,1,.418-.444l-.128-.2a1.485,1.485,0,0,0-.5.528Zm-.309.839a2.9,2.9,0,0,1,.309-.839l-.208-.116a3.138,3.138,0,0,0-.334.908Zm-.12,1.273a5.839,5.839,0,0,1,.12-1.272l-.233-.048a6.075,6.075,0,0,0-.125,1.324Zm8.027-2.655a1.956,1.956,0,0,0-.649.1l.077.225a1.718,1.718,0,0,1,.57-.092Zm.086,0-.083,0-.007.238.084,0Zm.177.044a.5.5,0,0,0-.172-.043l-.017.237a.265.265,0,0,1,.091.023Zm.131.009c-.062-.006-.114-.011-.161-.018l-.036.235c.056.009.116.014.176.02Zm.055.005-.055-.005-.022.237.054.005Zm.244.007c-.089,0-.168,0-.244-.007l-.023.237c.089.009.18.009.267.009Zm0,0h0v.238h0Zm.149,0h-.149v.238h.149Zm.065-.021a.259.259,0,0,1-.078.022l.027.236a.5.5,0,0,0,.15-.042Zm.169-.472a1.225,1.225,0,0,1-.216.51l.192.14a1.463,1.463,0,0,0,.258-.609Zm.055-.469a2.7,2.7,0,0,1-.055.466l.233.048a2.946,2.946,0,0,0,.06-.507Zm-.718-.336a1.451,1.451,0,0,1,.532.141.34.34,0,0,1,.189.224l.232-.051a.576.576,0,0,0-.306-.38,1.677,1.677,0,0,0-.621-.17Zm-.453.007a1.5,1.5,0,0,1,.45-.007l.032-.236a1.738,1.738,0,0,0-.522.009Zm-.448.118a2.216,2.216,0,0,1,.446-.117l-.036-.235a2.452,2.452,0,0,0-.494.13Zm-.479.2c.166-.075.326-.139.478-.194l-.081-.224c-.157.057-.322.123-.495.2Zm-.459.273a2.835,2.835,0,0,1,.461-.273l-.1-.215a3.072,3.072,0,0,0-.5.3Zm-.342-.252a.434.434,0,0,1,.162.2L61.4,89.2a.672.672,0,0,0-.25-.31ZM60.7,89.03a.66.66,0,0,1,.332.063l.1-.215a.9.9,0,0,0-.451-.086Zm-.108,0h.1v-.238h-.1Zm-.083.023a.265.265,0,0,1,.091-.023l-.017-.237a.5.5,0,0,0-.172.043Zm-.435.209a3.312,3.312,0,0,1,.43-.207l-.087-.221a3.547,3.547,0,0,0-.46.221Zm-.242.181a1.319,1.319,0,0,1,.242-.182l-.12-.205a1.559,1.559,0,0,0-.286.214Zm.183.432a5.668,5.668,0,0,0-.152-.556l-.226.075a5.424,5.424,0,0,1,.145.533Zm.068.714a3.376,3.376,0,0,0-.068-.711l-.233.047a3.139,3.139,0,0,1,.063.661Zm-.016,2.75.016-2.751h-.238l-.016,2.751Zm-.008,1.782q.008-.829.008-1.782h-.238q0,.952-.008,1.78Zm-.025,1.489q.017-.66.025-1.489l-.238,0q-.008.828-.025,1.485Zm.537-.13c-.173.006-.392.008-.656.008v.238c.265,0,.487,0,.664-.008Zm.43-.025c-.112.01-.257.019-.43.025l.008.237c.177-.006.327-.015.444-.025Zm.252-.051a1,1,0,0,1-.251.051l.017.237a1.233,1.233,0,0,0,.31-.063Zm.167-.1a.6.6,0,0,1-.172.1l.088.221a.846.846,0,0,0,.24-.145Zm.1-.253a.646.646,0,0,1-.118.272l.191.142a.882.882,0,0,0,.161-.372Zm.023-.331a2.079,2.079,0,0,1-.024.334l.235.036a2.313,2.313,0,0,0,.027-.373Zm0-5.195v5.194h.238V90.523Zm.59-.442a1.471,1.471,0,0,0-.556.36l.171.166a1.232,1.232,0,0,1,.466-.3Zm7.212,6.645a1.309,1.309,0,0,0,.252-.019l-.04-.235a1.067,1.067,0,0,1-.206.015Zm-1.2,0h1.206v-.238H68.14Zm-.086-1.53q0,.781-.033,1.4l.238.012q.032-.63.033-1.416Zm0-3.667V95.2h.238V91.529Zm-.19-1.211a2.681,2.681,0,0,1,.19,1.211h.238A2.878,2.878,0,0,0,68.07,90.2Zm-.631-.3a.649.649,0,0,1,.631.3l.207-.118a.884.884,0,0,0-.838-.418Zm-.635.158a1.284,1.284,0,0,1,.633-.158l0-.238a1.521,1.521,0,0,0-.751.187Zm-.513.394a2.072,2.072,0,0,1,.513-.394l-.114-.209a2.308,2.308,0,0,0-.572.439Zm.033,5.194V90.49h-.238v5.276Zm-.034.367a1.744,1.744,0,0,0,.034-.368l-.238,0a1.5,1.5,0,0,1-.03.318Zm-.177.337a.759.759,0,0,0,.176-.333l-.231-.056a.521.521,0,0,1-.121.228Zm-.261.157a.805.805,0,0,0,.251-.147l-.155-.18a.567.567,0,0,1-.177.1Zm-.306.071a1.586,1.586,0,0,0,.3-.07l-.076-.225a1.418,1.418,0,0,1-.259.06Zm-.437.026a2.864,2.864,0,0,0,.438-.026l-.032-.235a2.707,2.707,0,0,1-.4.024Zm-.649,0H64.9v-.238h-.651Zm-.1-1.538q0,.791-.016,1.415l.238.006q.016-.629.016-1.422Zm0-4.631v4.631h.238V90.555Zm-.055-.666a3.613,3.613,0,0,1,.055.664l.238,0a3.851,3.851,0,0,0-.059-.708Zm-.137-.528a4.369,4.369,0,0,1,.137.53l.234-.045a4.6,4.6,0,0,0-.144-.559Zm.779-.559a1.963,1.963,0,0,0-.757.446l.182.153a1.775,1.775,0,0,1,.662-.378Zm.167-.041a.5.5,0,0,0-.172.043l.1.217A.266.266,0,0,1,64.919,89Zm.091,0H64.91V89h.082Zm.446.128a.756.756,0,0,0-.451-.128L65,89a.518.518,0,0,1,.309.087Zm.262.273a1.012,1.012,0,0,0-.259-.271l-.138.193a.774.774,0,0,1,.2.207Zm.836-.542a3.623,3.623,0,0,0-1.005.511l.139.193a3.384,3.384,0,0,1,.939-.477Zm1.11-.172a3.487,3.487,0,0,0-1.11.172l.074.226a3.25,3.25,0,0,1,1.034-.16Zm.156,0h-.157v.238H67.8Zm.2.02a.969.969,0,0,0-.2-.02v.238a.732.732,0,0,1,.149.015Zm.9.238a2.478,2.478,0,0,0-.918-.24l-.015.237a2.241,2.241,0,0,1,.83.217Zm.612.489a1.948,1.948,0,0,0-.609-.487l-.108.212a1.712,1.712,0,0,1,.535.428Zm.388-.346a2.681,2.681,0,0,0-.552.328l.145.188a2.441,2.441,0,0,1,.5-.3Zm.555-.218c-.169.056-.355.13-.555.218l.1.218c.2-.086.374-.157.534-.21Zm1.077-.171a3.287,3.287,0,0,0-1.078.171l.076.225a3.05,3.05,0,0,1,1-.159Zm.189,0h-.19V88.7h.19Zm.182.019a.815.815,0,0,0-.183-.019l0,.238a.577.577,0,0,1,.13.013Zm-.043.235h.017v-.238h-.017Zm1.012.04a2.458,2.458,0,0,0-1-.278l-.013.238a2.22,2.22,0,0,1,.908.251Zm.646.632a1.671,1.671,0,0,0-.644-.631l-.114.209a1.436,1.436,0,0,1,.553.541Zm.312.924a2.7,2.7,0,0,0-.311-.923l-.208.115a2.466,2.466,0,0,1,.284.841Zm.084,1.155a7.457,7.457,0,0,0-.084-1.156l-.235.036a7.216,7.216,0,0,1,.081,1.119Zm0,3.9v-3.9h-.238v3.9Zm.031.971c-.021-.282-.031-.605-.031-.971h-.238c0,.371.01.7.032.99Zm-.286.25a.972.972,0,0,0,.245-.15l-.154-.182a.7.7,0,0,1-.183.113Zm-.329.083a1.253,1.253,0,0,0,.327-.082l-.088-.221a1.007,1.007,0,0,1-.265.067Zm-.453.042c.178-.01.331-.024.456-.042L73.3,96.43q-.175.026-.436.04Zm-.681.017q.412,0,.681-.017l-.013-.237q-.26.014-.669.017Zm-.223-.368a1.637,1.637,0,0,0,.116.3l.213-.107a1.405,1.405,0,0,1-.1-.258ZM71.929,96a1.353,1.353,0,0,0,.045.361l.23-.061a1.118,1.118,0,0,1-.037-.3Zm0-4.451V96h.238V91.545Zm-.183-1.213a2.787,2.787,0,0,1,.183,1.213h.238a2.982,2.982,0,0,0-.212-1.327Zm-.621-.3a.636.636,0,0,1,.621.3l.209-.114a.87.87,0,0,0-.83-.425Zm-.641.173a1.245,1.245,0,0,1,.64-.173v-.238a1.484,1.484,0,0,0-.762.206Zm-.546.437a2.476,2.476,0,0,1,.546-.437l-.121-.2a2.711,2.711,0,0,0-.6.479Zm-.122-.215-.049.049.168.168.049-.049Zm.2,5.817V90.51h-.238v5.733ZM69.6,96.7a.612.612,0,0,0,.3-.16.417.417,0,0,0,.112-.3l-.238,0a.179.179,0,0,1-.047.135.379.379,0,0,1-.189.092Zm7.423-8.026a2.432,2.432,0,0,1,.252.009l.025-.237a2.658,2.658,0,0,0-.276-.01Zm-1.837.518a2.973,2.973,0,0,1,1.836-.518v-.238a3.209,3.209,0,0,0-1.98.566Zm-.679,1.438a1.686,1.686,0,0,1,.679-1.438l-.143-.19a1.923,1.923,0,0,0-.774,1.628Zm.724,1.517a2.135,2.135,0,0,1-.724-1.517h-.238a2.372,2.372,0,0,0,.794,1.686Zm.4.312-.413-.322-.146.188.413.321Zm.536.437c-.2-.158-.38-.3-.531-.433l-.155.181c.155.133.334.28.54.441Zm.581.434q-.278-.2-.581-.434l-.147.188c.205.16.4.306.59.44Zm.058.032c-.029-.02-.054-.039-.07-.048a.143.143,0,0,0-.031-.013.125.125,0,0,0-.025,0,.127.127,0,0,0-.06.011.119.119,0,0,0-.063.143.143.143,0,0,0,.017.035l.009.011.013.014.168-.168h0l.005.007a.12.12,0,0,1,.016.032.121.121,0,0,1,0,.06.119.119,0,0,1-.064.081.118.118,0,0,1-.059.011.113.113,0,0,1-.024,0l-.016-.006,0,0,0,0,.01.007.035.025Zm.135.1c-.029-.019-.074-.05-.133-.095l-.142.191c.061.045.11.08.148.1Zm.522.5a1.668,1.668,0,0,0-.524-.506l-.124.2a1.431,1.431,0,0,1,.449.434Zm.159.586a1.127,1.127,0,0,0-.156-.58l-.205.12a.893.893,0,0,1,.123.459Zm-.233.692a1.036,1.036,0,0,0,.233-.7l-.238.01a.792.792,0,0,1-.179.537Zm-.307.228a.954.954,0,0,0,.3-.223l-.177-.16a.708.708,0,0,1-.227.167Zm-.365.088a.952.952,0,0,0,.365-.088l-.1-.216a.7.7,0,0,1-.274.066Zm-.1.017c.034,0,.073-.01.115-.019l-.048-.233c-.035.007-.067.012-.1.017Zm-.047.007.047-.007-.034-.236-.05.008Zm-.16.01a1.009,1.009,0,0,0,.16-.01l-.038-.235a.778.778,0,0,1-.122.007Zm-.63-.078a2.673,2.673,0,0,0,.629.078v-.238a2.45,2.45,0,0,1-.573-.071Zm-.591-.2a3.487,3.487,0,0,0,.592.2l.054-.232a3.22,3.22,0,0,1-.552-.183Zm.167-.092v-.017h-.238v.017Zm-.62-.03a.969.969,0,0,1,.441.133l.12-.205a1.2,1.2,0,0,0-.549-.165Zm-.159,0h.165v-.238h-.165Zm-.127.377a1.586,1.586,0,0,1,.223-.425l-.192-.141a1.815,1.815,0,0,0-.256.49Zm-.084.4a1.263,1.263,0,0,1,.083-.4l-.222-.085a1.5,1.5,0,0,0-.1.475Zm.688.455a1.117,1.117,0,0,1-.7-.507l-.218.094a1.339,1.339,0,0,0,.835.637Zm1.385.222a4.078,4.078,0,0,1-1.386-.222l-.078.225a4.323,4.323,0,0,0,1.467.235Zm1.091-.144a3.988,3.988,0,0,1-1.089.144l0,.238a4.234,4.234,0,0,0,1.154-.153Zm.884-.426a2.636,2.636,0,0,1-.883.426l.061.23a2.876,2.876,0,0,0,.963-.464Zm.582-.691a1.972,1.972,0,0,1-.582.692l.142.191a2.2,2.2,0,0,0,.653-.775Zm.21-.973A2.119,2.119,0,0,1,79,95.4l.214.1a2.356,2.356,0,0,0,.235-1.084Zm-.232-.917a1.847,1.847,0,0,1,.232.913l.238,0a2.084,2.084,0,0,0-.262-1.031Zm-.744-.849a2.976,2.976,0,0,1,.745.851l.206-.12a3.215,3.215,0,0,0-.8-.919Zm-.466-.34c.169.12.325.236.468.342l.142-.191c-.143-.107-.3-.223-.472-.345Zm-.491-.366c.155.123.319.244.491.366l.138-.194c-.169-.12-.33-.239-.481-.359Zm-.318-.22c.1.073.212.15.325.226l.132-.2c-.11-.073-.216-.148-.319-.222Zm-.057-.041.057.041.138-.194-.058-.041Zm-.28-.2c.08.059.174.129.28.2l.137-.194c-.1-.074-.2-.141-.276-.2Zm-.035-.026.035.026.142-.191-.036-.026Zm-.387-.431a1.44,1.44,0,0,0,.387.431l.142-.191a1.208,1.208,0,0,1-.323-.36Zm-.107-.439a.97.97,0,0,0,.1.433l.213-.106a.736.736,0,0,1-.078-.327Zm.076-.352a.8.8,0,0,0-.076.354l.238,0a.559.559,0,0,1,.053-.248Zm.226-.284a.8.8,0,0,0-.226.284l.215.1a.559.559,0,0,1,.158-.2Zm.766-.241a1.147,1.147,0,0,0-.765.24l.146.188a.911.911,0,0,1,.607-.19Zm.78.157a2.132,2.132,0,0,0-.785-.157l0,.238a1.894,1.894,0,0,1,.7.14Zm.248.067a1.461,1.461,0,0,1-.252-.069l-.083.223a1.691,1.691,0,0,0,.293.08Zm.28.059c-.09-.022-.184-.042-.281-.059l-.04.234c.09.015.178.034.264.055Zm.16.031a1.471,1.471,0,0,1-.16-.031l-.058.231a1.713,1.713,0,0,0,.186.036Zm.174.037a1.139,1.139,0,0,0-.175-.037l-.031.236a.913.913,0,0,1,.138.029Zm.084-.358a1.857,1.857,0,0,1-.215.4l.195.137a2.111,2.111,0,0,0,.243-.455Zm.091-.375a1.02,1.02,0,0,1-.088.369l.217.1a1.262,1.262,0,0,0,.108-.455Zm-.374-.323a1.718,1.718,0,0,1,.277.214.365.365,0,0,1,.1.146l.23-.062a.591.591,0,0,0-.162-.252,1.948,1.948,0,0,0-.316-.246Zm-1.117-.295a2.5,2.5,0,0,1,1.117.295l.129-.2a2.722,2.722,0,0,0-1.226-.332Zm-.21-.024a1.747,1.747,0,0,1,.2.022l.04-.234a1.963,1.963,0,0,0-.227-.026Z" transform="translate(-32.71 -84.867)" fill="#5f5e5e"/>
        <path id="Pfad_3571" data-name="Pfad 3571" d="M26.314,104.03a1.071,1.071,0,0,0,.355-.114l.056-.061a1.694,1.694,0,0,0,.032-.329v-2.853a2.537,2.537,0,0,0,1.287.28,3.431,3.431,0,0,0,.89-.124,2.342,2.342,0,0,0,.907-.5,3.746,3.746,0,0,0,1.071-1.5,6.475,6.475,0,0,0,.413-2.516,5.175,5.175,0,0,0-.229-1.641,3.088,3.088,0,0,0-.635-1.121,2.388,2.388,0,0,0-.939-.635,3.3,3.3,0,0,0-1.144-.2,2.633,2.633,0,0,0-.535.049,4.381,4.381,0,0,0-.487.133,5.178,5.178,0,0,0-.988.494.893.893,0,0,0-.229-.239.638.638,0,0,0-.38-.108h-.065a1.455,1.455,0,0,0-.149.033c-.176.077-.323.146-.437.206a.641.641,0,0,0-.255.229,3.6,3.6,0,0,1,.132.543,4.124,4.124,0,0,1,.049.676v7.6c0,.23,0,.439,0,.626,0,.152,0,.289,0,.413a5.2,5.2,0,0,0,.041.626,3.117,3.117,0,0,0,.66.082A2.956,2.956,0,0,0,26.314,104.03Zm2.059-4.458a1.313,1.313,0,0,1-.561.139,1.336,1.336,0,0,1-.572-.127,1.613,1.613,0,0,1-.458-.313V94.639a3.063,3.063,0,0,1,.572-.388,1.466,1.466,0,0,1,.686-.173,1.23,1.23,0,0,1,1.074.539,3.274,3.274,0,0,1,.38,1.814,6.629,6.629,0,0,1-.166,1.625,3.366,3.366,0,0,1-.412,1.005A1.391,1.391,0,0,1,28.373,99.572Zm-9.539.684a.3.3,0,0,1,.025-.067l.3-1.138q.188-.681.383-1.447t.343-1.425c.088.417.189.868.3,1.352s.214.933.312,1.351a1.339,1.339,0,0,1,.055.2c.016.072.035.151.057.239l.055.2.053.191.021.077c.03.11.059.216.086.309a1.9,1.9,0,0,0,.222.437,1.566,1.566,0,0,0,.321.372l.039,0c.278-.021.5-.038.654-.038a2.725,2.725,0,0,0,.329-.025.431.431,0,0,0,.247-.19,1.436,1.436,0,0,0,.114-.343l-.016.016a.38.38,0,0,0,.024-.065.3.3,0,0,1,.025-.067q.264-.839.555-1.9t.572-2.085l.343-1.27c.109-.406.214-.774.312-1.1l-.016.016.066-.165c.032-.121.057-.22.073-.3a.573.573,0,0,0,.009-.215l-.042-.082a.2.2,0,0,0-.073-.082.753.753,0,0,0-.165-.033c-.074-.009-.159-.021-.252-.034l-.053-.007c-.114-.016-.228-.031-.343-.041s-.206-.016-.272-.016a1.776,1.776,0,0,0-.181.008.356.356,0,0,0-.182.09.651.651,0,0,0-.082.165.229.229,0,0,1-.016.114q-.082.428-.2.948t-.264,1.129q-.186.826-.343,1.575T21.9,98.246a1.5,1.5,0,0,1-.041-.165.589.589,0,0,0-.025-.1l0-.01c-.01-.033-.024-.078-.038-.139v-.005c-.016-.067-.041-.169-.073-.308-.042-.168-.082-.336-.114-.511s-.071-.357-.114-.543q-.181-.778-.355-1.487t-.305-1.3a3.132,3.132,0,0,0-.121-.4.848.848,0,0,0-.184-.271A.921.921,0,0,0,20.185,93c-.149.016-.294.039-.437.065a3.176,3.176,0,0,0-.388.1.948.948,0,0,0-.192.07v.214a.372.372,0,0,1-.032.132c-.012.066-.036.165-.069.3-.019.076-.04.163-.064.263-.051.216-.1.446-.16.685l-.046.2c-.072.31-.143.607-.214.882s-.119.461-.141.56c-.074.3-.14.581-.2.854l-.035.151-.024.1c-.064.274-.117.5-.165.691a2.924,2.924,0,0,1-.074-.29q-.026-.123-.058-.288c-.016-.08-.036-.171-.058-.273L17.8,97.3c-.032-.149-.07-.344-.114-.586q-.065-.28-.124-.61c-.039-.22-.085-.44-.14-.66q-.265-1.056-.478-2.011a1.527,1.527,0,0,0-.1-.31.665.665,0,0,0-.206-.255,4.528,4.528,0,0,0-1.144.106.79.79,0,0,0-.494.305,5.634,5.634,0,0,1,.255.8q.173.621.454,1.661.15.57.313,1.168t.321,1.17q.156.569.3,1.088t.255.931a1.447,1.447,0,0,0,.207.437,1.533,1.533,0,0,0,.321.372q.462-.034.7-.041a2.693,2.693,0,0,0,.321-.025.426.426,0,0,0,.247-.19,1.96,1.96,0,0,0,.133-.343l-.017.016A.318.318,0,0,0,18.833,100.257Z" transform="translate(-15 -89.045)" fill="#b85a1b" fill-rule="evenodd"/>
        <path id="Pfad_3572" data-name="Pfad 3572" d="M26.523,103.785l.056.105.018-.01.014-.015Zm-.355.114-.016-.118h-.005Zm.411-.175.087.081.023-.025.007-.033Zm.032-.329h0Zm0-2.853.06-.1-.179-.1v.207Zm1.287.28v.119h0Zm.89-.124.032.115h0Zm.907-.5-.077-.091,0,0Zm1.071-1.5-.109-.047v0Zm.413-2.516-.119,0v0Zm-.229-1.641.114-.035h0Zm-.635-1.121.089-.079h0Zm-.939-.635.041-.112h0Zm-1.144-.2V92.7h0Zm-.535.049-.023-.117h0Zm-.487.133-.038-.113h0Zm-.988.494-.1.065.064.1.1-.064Zm-.229-.239.069-.1,0,0Zm-.38-.108v.119h0Zm-.065,0V92.8h-.01l-.01,0Zm-.149.033-.032-.115-.008,0-.008,0Zm-.437.206.053.107h0Zm-.255.229-.1-.064-.03.047.017.054Zm.132.543.118-.018h0Zm.049.676h0Zm0,8.226h0Zm0,.413h0Zm.041.626-.118.015.01.082.081.019Zm.66.082,0,.119h0Zm2.071-4.367V99.7h0Zm.561-.139.053.107h0Zm-1.132.012.051-.108h0Zm-.458-.313h-.119v.05l.036.035Zm0-4.633-.077-.09-.042.036v.055Zm.572-.388.055.105h0Zm.686-.173v.119H27.9Zm1.074.539-.1.067h0Zm.38,1.814H29.23v0Zm-.166,1.625.116.027h0Zm-.412,1.005-.1-.062h0Zm-10.059,1.129.105.056.006-.012,0-.013Zm-.025.067.115.03h0Zm.321-1.2-.115-.031h0Zm.383-1.447.115.03Zm.343-1.425.116-.025H19.62Zm.3,1.352-.116.026Zm.312,1.351-.116.027,0,.007,0,.007Zm.055.2-.117.022v0Zm.057.239-.116.029v0Zm.055.2-.115.032Zm.053.191.115-.032Zm.021.077-.115.031h0Zm.086.309-.114.033v.007Zm.222.437.1-.063,0,0Zm.321.372-.077.091.037.031.049,0Zm.039,0,.009.118h0Zm.654-.038v.119h0Zm.329-.025.016.118h.009l.008,0Zm.247-.19.1.061,0,0,0-.005Zm.114-.343.117.023.076-.384-.277.276Zm-.016.016-.107-.051.191.136Zm.024-.065.115.03v0Zm.025-.067.105.056,0-.01,0-.01Zm.555-1.9-.115-.031h0Zm.572-2.085.115.031h0ZM24.1,94.8l.115.031h0Zm.312-1.1.114.034-.2-.118Zm-.016.016-.11-.044.194.129Zm.066-.165.11.044,0-.007,0-.007Zm.073-.3-.116-.027v0Zm.009-.215.118-.017,0-.019-.009-.018Zm-.042-.082-.107.052v0Zm-.073-.082.064-.1-.013-.008-.015,0Zm-.165-.033-.014.118h0Zm-.252-.034.017-.118h0Zm-.053-.007.017-.118h0Zm-.343-.041-.011.118Zm-.272-.016v.119h0Zm-.181.008-.011-.118h-.009Zm-.182.09-.081-.087-.009.009-.007.011Zm-.082.165-.113-.038-.008.025,0,.026Zm-.016.114-.11-.046,0,.011,0,.012Zm-.2.948-.116-.026h0ZM22.424,95.2l-.116-.028v0Zm-.665,2.918-.114.035.12.387.108-.39Zm-.041-.165-.117.02v0Zm-.025-.1-.114.034,0,.005Zm0-.01-.114.034h0Zm-.038-.139.116-.028h0Zm0-.005-.116.028h0Zm-.073-.308.116-.027v0Zm-.114-.511-.117.021h0Zm-.114-.543-.116.027h0Zm-.66-2.79.116-.026h0Zm-.121-.4.111-.042,0,0Zm-.184-.271.084-.085-.025-.024-.034-.007Zm-.343-.008.013.118h.007Zm-.437.065-.022-.117h0Zm-.388.1.028.116h.008Zm-.192.07-.052-.107-.067.033V93.1Zm0,.214.119.007v-.007Zm-.032.132-.108-.049-.006.014,0,.015Zm-.069.3-.116-.028h0Zm-.064.263.116.027h0Zm-.16.685.116.027h0Zm-.046.2.116.027h0Zm-.214.882.115.03h0Zm-.141.56.115.029v0Zm-.2.854-.116-.027h0Zm-.035.151.116.027h0Zm-.024.1.116.027h0Zm-.165.691-.114.035.125.4.1-.405Zm-.074-.29.117-.024h0Zm-.058-.288-.117.023Zm-.058-.273-.116.025Zm-.025-.114-.116.025Zm-.114-.586.117-.022v-.005Zm-.124-.61-.117.021Zm-.14-.66.115-.029h0ZM16.8,93.3l-.116.024h0Zm-.1-.31.109-.049h0Zm-.206-.255.071-.1-.03-.022H16.5Zm-1.144.106-.026-.116-.006,0Zm-.494.305-.1-.06-.029.05.022.054Zm.255.8-.116.028v0Zm.454,1.661.115-.03h0Zm.313,1.168-.115.031Zm.321,1.17.115-.031h0Zm.551,2.019-.115.032h0Zm.207.437.1-.062,0,0,0,0Zm.321.372-.076.091.037.031.048,0Zm.7-.041,0-.119h0Zm.321-.025.017.118h.008l.008,0Zm.247-.19.1.061,0,0,0,0Zm.133-.343.115.032.115-.41-.311.291Zm-.017.016-.105-.055.186.142Zm7.8,3.489a.956.956,0,0,1-.315.1l.033.236a1.2,1.2,0,0,0,.394-.127Zm.024-.036-.056.06.175.161.056-.06Zm0-.249a1.574,1.574,0,0,1-.03.306l.233.046a1.812,1.812,0,0,0,.034-.353Zm0-2.853v2.853h.238v-2.853Zm1.406.161a2.419,2.419,0,0,1-1.227-.264l-.12.206a2.655,2.655,0,0,0,1.347.3Zm.858-.119a3.3,3.3,0,0,1-.859.119l0,.238a3.563,3.563,0,0,0,.921-.128Zm.86-.476a2.221,2.221,0,0,1-.861.477l.066.229a2.47,2.47,0,0,0,.953-.528Zm1.039-1.455a3.626,3.626,0,0,1-1.037,1.453l.154.182a3.868,3.868,0,0,0,1.1-1.549Zm.4-2.473a6.362,6.362,0,0,1-.4,2.47l.219.094a6.594,6.594,0,0,0,.423-2.563Zm-.224-1.606a5.056,5.056,0,0,1,.224,1.6l.238.005a5.293,5.293,0,0,0-.234-1.678Zm-.61-1.077a2.97,2.97,0,0,1,.61,1.078l.227-.071a3.208,3.208,0,0,0-.659-1.164Zm-.891-.6a2.269,2.269,0,0,1,.892.6l.176-.16a2.506,2.506,0,0,0-.986-.666Zm-1.1-.19a3.179,3.179,0,0,1,1.1.191l.081-.224a3.418,3.418,0,0,0-1.185-.205Zm-.513.047a2.514,2.514,0,0,1,.511-.047l0-.238a2.751,2.751,0,0,0-.56.051Zm-.472.129a4.254,4.254,0,0,1,.474-.129l-.049-.233a4.5,4.5,0,0,0-.5.136Zm-.962.482a5.056,5.056,0,0,1,.966-.483l-.083-.223a5.292,5.292,0,0,0-1.011.506Zm-.362-.242a.774.774,0,0,1,.2.207l.2-.13a1.013,1.013,0,0,0-.259-.271Zm-.306-.085a.518.518,0,0,1,.309.087l.133-.2a.756.756,0,0,0-.451-.128Zm-.07,0h.065V92.8h-.065Zm-.117.029a1.336,1.336,0,0,1,.136-.03l-.04-.235a1.576,1.576,0,0,0-.161.036Zm-.414.2c.112-.058.255-.127.43-.2l-.095-.218c-.178.077-.327.148-.444.209Zm-.21.187a.522.522,0,0,1,.208-.186l-.106-.213a.76.76,0,0,0-.3.271Zm.149.46a3.724,3.724,0,0,0-.136-.561l-.226.074a3.485,3.485,0,0,1,.127.525Zm.051.7a4.245,4.245,0,0,0-.051-.7l-.235.037a4,4,0,0,1,.048.657Zm0,7.6V94.6h-.238v7.6Zm0,.624c0-.187,0-.395,0-.624h-.238c0,.231,0,.44,0,.627Zm0,.414c0-.124,0-.263,0-.414l-.238,0c0,.152,0,.289,0,.412Zm.04.611a5.084,5.084,0,0,1-.04-.611h-.238a5.324,5.324,0,0,0,.042.64Zm.544-.021a3.071,3.071,0,0,1-.635-.079l-.054.232a3.288,3.288,0,0,0,.685.085Zm.548-.048a2.874,2.874,0,0,1-.549.048l0,.237a3.077,3.077,0,0,0,.595-.051ZM27.669,99.7a1.436,1.436,0,0,0,.611-.152l-.107-.213a1.2,1.2,0,0,1-.51.127Zm-.625-.138a1.46,1.46,0,0,0,.623.138v-.238a1.218,1.218,0,0,1-.521-.116Zm-.49-.336a1.744,1.744,0,0,0,.491.336l.1-.216a1.5,1.5,0,0,1-.424-.29Zm-.036-4.718v4.633h.238V94.508Zm.636-.493a3.183,3.183,0,0,0-.594.4l.155.181a2.946,2.946,0,0,1,.55-.373Zm.741-.186a1.586,1.586,0,0,0-.742.187l.112.21a1.348,1.348,0,0,1,.631-.159Zm.661.142a1.349,1.349,0,0,0-.666-.142l.011.238a1.111,1.111,0,0,1,.549.117Zm.512.449a1.349,1.349,0,0,0-.512-.449l-.107.213a1.111,1.111,0,0,1,.422.37Zm.4,1.881a3.381,3.381,0,0,0-.4-1.882l-.2.136A3.168,3.168,0,0,1,29.23,96.3ZM29.3,97.951a6.751,6.751,0,0,0,.169-1.654l-.238.005a6.509,6.509,0,0,1-.163,1.6Zm-.426,1.041a3.484,3.484,0,0,0,.426-1.041l-.232-.053a3.24,3.24,0,0,1-.4.97Zm-.591.554a1.508,1.508,0,0,0,.591-.555l-.2-.123a1.279,1.279,0,0,1-.5.468ZM18.608,100a.41.41,0,0,0-.035.093l.231.057a.173.173,0,0,1,.015-.039Zm.286-1.113-.3,1.138.23.06.3-1.138Zm.383-1.446q-.2.765-.383,1.445l.229.063q.188-.682.384-1.449Zm.342-1.422q-.147.657-.342,1.422l.23.059q.2-.768.344-1.429Zm.53,1.352c-.109-.484-.209-.934-.3-1.351l-.233.049c.088.418.189.87.3,1.354Zm.312,1.35c-.1-.418-.2-.867-.312-1.35l-.232.052c.109.485.214.935.313,1.352Zm.056.205a1.466,1.466,0,0,0-.06-.218l-.224.081a1.227,1.227,0,0,1,.05.182Zm.056.233c-.022-.088-.041-.166-.057-.236l-.232.051c.016.074.036.154.058.242Zm.054.194-.055-.2-.229.063c.017.064.036.13.055.2Zm.053.191-.053-.191-.229.064.053.19Zm.021.078-.021-.078-.229.063.021.077Zm.086.308c-.027-.092-.056-.2-.086-.308l-.229.063c.03.11.06.217.087.311Zm.206.4a1.787,1.787,0,0,1-.208-.41l-.224.079a2.024,2.024,0,0,0,.236.464Zm.3.348a1.442,1.442,0,0,1-.3-.344l-.2.126a1.687,1.687,0,0,0,.346.4Zm-.046-.03-.039,0,.018.237.039,0Zm.663-.039c-.164,0-.387.017-.663.039l.018.237c.281-.021.492-.038.645-.038Zm.313-.024a2.488,2.488,0,0,1-.315.024l0,.238a2.783,2.783,0,0,0,.344-.027Zm.162-.134a.311.311,0,0,1-.179.137l.067.228a.549.549,0,0,0,.316-.243Zm.1-.3a1.308,1.308,0,0,1-.1.314l.214.1a1.549,1.549,0,0,0,.124-.372Zm.185.123.016-.016-.168-.168-.016.016Zm-.175-.18a.255.255,0,0,1-.016.044l.215.1a.493.493,0,0,0,.032-.086Zm.035-.091a.41.41,0,0,0-.035.093l.231.057a.173.173,0,0,1,.015-.039Zm.545-1.877q-.29,1.061-.554,1.9l.227.072q.265-.841.556-1.906Zm.572-2.085q-.281,1.023-.572,2.085l.229.063q.291-1.063.572-2.085Zm.343-1.269-.343,1.27.23.062.343-1.27Zm.313-1.107c-.1.33-.2.7-.313,1.107l.23.062c.108-.4.213-.772.311-1.1Zm.182.134.016-.016-.168-.168-.016.016Zm-.128-.293-.066.165.221.089.066-.165Zm.067-.276c-.015.073-.04.169-.072.29l.23.061c.032-.121.058-.222.075-.3Zm.008-.173a.453.453,0,0,1-.007.17l.232.055a.691.691,0,0,0,.011-.26Zm-.03-.045.042.082.212-.109-.042-.082Zm-.031-.036a.083.083,0,0,1,.03.034l.214-.1a.321.321,0,0,0-.116-.131Zm-.111-.015a.633.633,0,0,1,.139.028l.073-.227a.875.875,0,0,0-.191-.038ZM24,92.925c.093.013.179.025.255.034l.028-.236c-.073-.008-.156-.02-.249-.033Zm-.053-.007.053.007.033-.236-.053-.007Zm-.337-.041c.112.01.223.025.337.041l.033-.236c-.115-.016-.231-.031-.349-.042Zm-.262-.016c.061,0,.147.005.262.016l.021-.237c-.116-.01-.211-.017-.283-.017Zm-.169.007a1.66,1.66,0,0,1,.169-.007l0-.238a1.894,1.894,0,0,0-.193.009Zm-.112.059a.237.237,0,0,1,.121-.06l-.041-.234a.475.475,0,0,0-.243.121Zm-.051.115a.532.532,0,0,1,.067-.135l-.2-.135a.77.77,0,0,0-.1.195ZM23,93.166a.348.348,0,0,0,.024-.174l-.236.028a.11.11,0,0,1-.008.055Zm-.192.928q.116-.522.2-.952l-.234-.045q-.082.426-.2.945Zm-.265,1.132q.149-.61.265-1.132l-.232-.052q-.115.519-.264,1.127ZM22.2,96.8q.157-.749.343-1.574l-.232-.052q-.187.827-.344,1.577Zm-.323,1.35q.166-.6.323-1.35l-.233-.049q-.156.746-.32,1.335Zm-.273-.174a1.612,1.612,0,0,0,.044.177l.227-.07a1.4,1.4,0,0,1-.038-.152Zm-.021-.08a.462.462,0,0,1,.02.078l.235-.04a.721.721,0,0,0-.03-.117Zm0-.015,0,.01.228-.069,0-.01Zm-.04-.145c.015.064.03.111.04.145l.228-.069c-.01-.033-.023-.076-.036-.133Zm0-.006v.006l.231-.056v-.005Zm-.073-.309c.032.139.057.242.073.309l.231-.056c-.016-.067-.041-.168-.073-.307Zm-.116-.517c.033.179.074.35.116.519l.231-.058c-.042-.167-.081-.333-.113-.5Zm-.113-.538c.043.185.082.365.113.538l.234-.043c-.032-.177-.072-.361-.116-.549Zm-.354-1.486q.174.709.354,1.486l.232-.054q-.181-.779-.355-1.489Zm-.306-1.306q.132.6.306,1.306l.231-.057q-.174-.708-.3-1.3Zm-.116-.384a3,3,0,0,1,.117.385l.232-.054a3.247,3.247,0,0,0-.126-.416ZM20.3,92.96a.729.729,0,0,1,.158.233l.219-.093a.967.967,0,0,0-.21-.309Zm-.24.025a.8.8,0,0,1,.3.007l.05-.233a1.041,1.041,0,0,0-.387-.009Zm-.435.065c.141-.026.283-.048.428-.064l-.025-.236c-.152.016-.3.04-.446.066Zm-.373.1a3.056,3.056,0,0,1,.373-.1l-.045-.234a3.3,3.3,0,0,0-.4.1Zm-.177.063a.829.829,0,0,1,.168-.061l-.057-.231a1.066,1.066,0,0,0-.216.079Zm.067.107V93.1H18.9v.214Zm-.042.18a.492.492,0,0,0,.042-.174l-.237-.013a.254.254,0,0,1-.022.09Zm-.062.279c.032-.132.058-.235.071-.307l-.234-.041c-.011.061-.034.155-.067.291Zm-.064.262c.023-.1.045-.186.064-.262l-.231-.057c-.019.076-.04.164-.064.264Zm-.16.684c.056-.239.109-.469.16-.684l-.231-.055c-.051.216-.1.446-.16.685Zm-.046.2.046-.2-.232-.054-.046.2Zm-.215.885c.071-.276.142-.574.215-.885l-.232-.054c-.072.31-.143.606-.213.879Zm-.14.556c.021-.1.067-.281.139-.555l-.23-.061c-.072.274-.12.464-.142.566Zm-.2.856c.064-.274.13-.558.2-.853l-.231-.058c-.075.3-.141.583-.2.857Zm-.035.151.035-.151-.232-.054-.035.151Zm-.024.1.024-.1-.232-.054-.024.1Zm-.166.693c.048-.188.1-.42.166-.693l-.232-.054c-.064.275-.117.5-.165.687Zm-.306-.3a3.051,3.051,0,0,0,.077.3l.227-.071a2.824,2.824,0,0,1-.071-.278Zm-.058-.289q.033.165.059.289l.233-.049q-.026-.123-.058-.287Zm-.057-.271c.022.1.042.191.057.271l.233-.046c-.016-.082-.036-.174-.058-.275Zm-.025-.114.025.114.232-.05-.025-.114Zm-.115-.589c.045.242.083.439.115.589l.233-.05c-.032-.147-.069-.341-.114-.582Zm-.124-.611q.059.332.125.616l.232-.054c-.043-.184-.084-.386-.122-.6Zm-.138-.652c.054.217.1.435.138.652l.234-.041c-.039-.222-.086-.445-.141-.668Zm-.479-2.014q.213.957.479,2.014l.231-.058q-.265-1.054-.477-2.008Zm-.093-.287a1.408,1.408,0,0,1,.093.286l.233-.049a1.643,1.643,0,0,0-.109-.334Zm-.169-.208a.545.545,0,0,1,.169.209l.216-.1a.783.783,0,0,0-.243-.3Zm-1.047.127a4.407,4.407,0,0,1,1.114-.1l.008-.238a4.645,4.645,0,0,0-1.174.109Zm-.417.249a.681.681,0,0,1,.424-.25l-.065-.229a.9.9,0,0,0-.565.36Zm.268.714a5.756,5.756,0,0,0-.26-.818l-.221.089a5.509,5.509,0,0,1,.25.784Zm.453,1.657q-.281-1.04-.454-1.662L15,93.979q.173.621.454,1.66Zm.313,1.168q-.163-.6-.313-1.167l-.23.061q.15.57.314,1.169Zm.321,1.17q-.158-.572-.321-1.17l-.229.063q.164.6.322,1.17ZM16.61,99q-.141-.52-.3-1.089l-.229.063q.156.569.3,1.088Zm.255.93q-.114-.411-.255-.93l-.23.062q.141.52.255.932Zm.19.4a1.321,1.321,0,0,1-.19-.4l-.229.065a1.571,1.571,0,0,0,.224.473Zm.3.349a1.428,1.428,0,0,1-.3-.343l-.2.125a1.658,1.658,0,0,0,.346.4Zm.62-.069q-.242.007-.705.041l.018.237q.462-.035.695-.041Zm.308-.024a2.546,2.546,0,0,1-.307.024l0,.238a2.745,2.745,0,0,0,.336-.027Zm.162-.133a.306.306,0,0,1-.178.137l.066.229a.545.545,0,0,0,.316-.243Zm.12-.314a1.831,1.831,0,0,1-.125.323l.213.106a2.068,2.068,0,0,0,.141-.364Zm.178.136.017-.016-.162-.174-.017.016Zm-.171-.182a.193.193,0,0,1-.015.04l.211.11a.418.418,0,0,0,.035-.09Z" transform="translate(-14.855 -88.914)" fill="#b85a1b"/>
      </g>
    </g>
  </g>
</svg>
